<svg xmlns="http://www.w3.org/2000/svg" xmlns:xlink="http://www.w3.org/1999/xlink" width="49" zoomAndPan="magnify" viewBox="0 0 36.75 32.249999" height="43" preserveAspectRatio="xMidYMid meet" version="1.0"><defs><clipPath id="077b7bde63"><path d="M 0.296875 0 L 36.210938 0 L 36.210938 23 L 0.296875 23 Z M 0.296875 0 " clip-rule="nonzero"/></clipPath><clipPath id="643688dfd3"><path d="M 9 16 L 28 16 L 28 30.785156 L 9 30.785156 Z M 9 16 " clip-rule="nonzero"/></clipPath><clipPath id="f5d1a25e83"><path d="M 0.296875 0 L 36.210938 0 L 36.210938 23 L 0.296875 23 Z M 0.296875 0 " clip-rule="nonzero"/></clipPath><clipPath id="b697a02924"><path d="M 9 16 L 28 16 L 28 30.785156 L 9 30.785156 Z M 9 16 " clip-rule="nonzero"/></clipPath></defs><g clip-path="url(#077b7bde63)"><path fill="#000000" d="M 29.308594 8.089844 C 28.636719 5.109375 25.917969 2.933594 22.742188 2.933594 C 21.996094 2.933594 21.269531 3.054688 20.570312 3.289062 C 19.105469 1.246094 16.695312 0.00390625 14.136719 0.00390625 C 9.804688 0.00390625 6.28125 3.453125 6.28125 7.695312 C 6.28125 7.867188 6.289062 8.035156 6.300781 8.207031 C 2.828125 8.882812 0.296875 11.851562 0.296875 15.390625 C 0.296875 19.136719 3.15625 22.269531 6.949219 22.671875 C 6.976562 22.675781 7.003906 22.675781 7.03125 22.675781 C 7.40625 22.675781 7.730469 22.398438 7.773438 22.023438 C 7.816406 21.621094 7.519531 21.257812 7.109375 21.214844 C 4.078125 20.890625 1.792969 18.386719 1.792969 15.390625 C 1.792969 12.355469 4.117188 9.847656 7.207031 9.554688 C 7.414062 9.535156 7.601562 9.429688 7.730469 9.269531 C 7.855469 9.105469 7.90625 8.898438 7.871094 8.695312 C 7.808594 8.355469 7.777344 8.027344 7.777344 7.695312 C 7.777344 4.261719 10.628906 1.46875 14.136719 1.46875 C 16.382812 1.46875 18.484375 2.652344 19.628906 4.5625 C 19.820312 4.886719 20.234375 5.015625 20.582031 4.859375 C 21.269531 4.554688 21.996094 4.398438 22.742188 4.398438 C 25.378906 4.398438 27.609375 6.328125 27.933594 8.886719 C 27.980469 9.253906 28.351562 9.527344 28.726562 9.527344 C 32.027344 9.527344 34.714844 12.160156 34.714844 15.390625 C 34.714844 18.144531 32.722656 20.554688 29.980469 21.121094 C 29.574219 21.207031 29.316406 21.59375 29.402344 21.992188 C 29.488281 22.386719 29.882812 22.640625 30.289062 22.558594 C 33.722656 21.847656 36.210938 18.832031 36.210938 15.390625 C 36.210938 11.558594 33.1875 8.402344 29.308594 8.089844 Z M 29.308594 8.089844 " fill-opacity="1" fill-rule="nonzero"/></g><g clip-path="url(#643688dfd3)"><path fill="#000000" d="M 25.734375 20.523438 L 25.734375 19.789062 C 25.734375 18.578125 24.726562 17.589844 23.492188 17.589844 L 17.375 17.589844 C 17.179688 17.589844 16.984375 17.511719 16.847656 17.375 L 16.226562 16.769531 C 15.804688 16.355469 15.238281 16.125 14.640625 16.125 L 11.519531 16.125 C 10.28125 16.125 9.273438 17.109375 9.273438 18.324219 L 9.273438 28.53125 L 9.285156 28.523438 C 9.269531 29 9.402344 29.46875 9.699219 29.867188 C 10.125 30.449219 10.789062 30.78125 11.519531 30.78125 L 23.738281 30.78125 C 24.707031 30.78125 25.5625 30.179688 25.867188 29.277344 L 27.863281 23.414062 C 28.09375 22.738281 27.980469 22.015625 27.554688 21.433594 C 27.128906 20.855469 26.464844 20.523438 25.734375 20.519531 Z M 11.519531 17.589844 L 14.640625 17.589844 C 14.835938 17.589844 15.03125 17.667969 15.167969 17.804688 L 15.789062 18.414062 C 16.210938 18.828125 16.777344 19.054688 17.375 19.054688 L 23.492188 19.054688 C 23.902344 19.054688 24.238281 19.386719 24.238281 19.789062 L 24.238281 20.523438 L 13.515625 20.523438 C 12.546875 20.523438 11.691406 21.125 11.386719 22.027344 L 10.769531 23.832031 L 10.769531 18.324219 C 10.769531 17.917969 11.105469 17.589844 11.519531 17.589844 Z M 26.445312 22.953125 L 24.449219 28.816406 C 24.347656 29.113281 24.0625 29.316406 23.738281 29.316406 L 11.519531 29.316406 C 11.277344 29.316406 11.054688 29.207031 10.914062 29.011719 C 10.769531 28.816406 10.734375 28.578125 10.808594 28.351562 L 12.804688 22.488281 C 12.90625 22.1875 13.191406 21.988281 13.515625 21.988281 L 25.734375 21.988281 C 25.976562 21.988281 26.199219 22.097656 26.339844 22.292969 C 26.484375 22.484375 26.519531 22.726562 26.445312 22.953125 Z M 26.445312 22.953125 " fill-opacity="1" fill-rule="nonzero"/></g><g clip-path="url(#f5d1a25e83)"><path fill="#000000" d="M 29.308594 8.089844 C 28.636719 5.109375 25.917969 2.933594 22.742188 2.933594 C 21.996094 2.933594 21.269531 3.054688 20.570312 3.289062 C 19.105469 1.246094 16.695312 0.00390625 14.136719 0.00390625 C 9.804688 0.00390625 6.28125 3.453125 6.28125 7.695312 C 6.28125 7.867188 6.289062 8.035156 6.300781 8.207031 C 2.828125 8.882812 0.296875 11.851562 0.296875 15.390625 C 0.296875 19.136719 3.15625 22.269531 6.949219 22.671875 C 6.976562 22.675781 7.003906 22.675781 7.03125 22.675781 C 7.40625 22.675781 7.730469 22.398438 7.773438 22.023438 C 7.816406 21.621094 7.519531 21.257812 7.109375 21.214844 C 4.078125 20.890625 1.792969 18.386719 1.792969 15.390625 C 1.792969 12.355469 4.117188 9.847656 7.207031 9.554688 C 7.414062 9.535156 7.601562 9.429688 7.730469 9.269531 C 7.855469 9.105469 7.90625 8.898438 7.871094 8.695312 C 7.808594 8.355469 7.777344 8.027344 7.777344 7.695312 C 7.777344 4.261719 10.628906 1.46875 14.136719 1.46875 C 16.382812 1.46875 18.484375 2.652344 19.628906 4.5625 C 19.820312 4.886719 20.234375 5.015625 20.582031 4.859375 C 21.269531 4.554688 21.996094 4.398438 22.742188 4.398438 C 25.378906 4.398438 27.609375 6.328125 27.933594 8.886719 C 27.980469 9.253906 28.351562 9.527344 28.726562 9.527344 C 32.027344 9.527344 34.714844 12.160156 34.714844 15.390625 C 34.714844 18.144531 32.722656 20.554688 29.980469 21.121094 C 29.574219 21.207031 29.316406 21.59375 29.402344 21.992188 C 29.488281 22.386719 29.882812 22.640625 30.289062 22.558594 C 33.722656 21.847656 36.210938 18.832031 36.210938 15.390625 C 36.210938 11.558594 33.1875 8.402344 29.308594 8.089844 Z M 29.308594 8.089844 " fill-opacity="1" fill-rule="nonzero"/></g><g clip-path="url(#b697a02924)"><path fill="#000000" d="M 25.734375 20.523438 L 25.734375 19.789062 C 25.734375 18.578125 24.726562 17.589844 23.492188 17.589844 L 17.375 17.589844 C 17.179688 17.589844 16.984375 17.511719 16.847656 17.375 L 16.226562 16.769531 C 15.804688 16.355469 15.238281 16.125 14.640625 16.125 L 11.519531 16.125 C 10.28125 16.125 9.273438 17.109375 9.273438 18.324219 L 9.273438 28.53125 L 9.285156 28.523438 C 9.269531 29 9.402344 29.46875 9.699219 29.867188 C 10.125 30.449219 10.789062 30.78125 11.519531 30.78125 L 23.738281 30.78125 C 24.707031 30.78125 25.5625 30.179688 25.867188 29.277344 L 27.863281 23.414062 C 28.09375 22.738281 27.980469 22.015625 27.554688 21.433594 C 27.128906 20.855469 26.464844 20.523438 25.734375 20.519531 Z M 11.519531 17.589844 L 14.640625 17.589844 C 14.835938 17.589844 15.03125 17.667969 15.167969 17.804688 L 15.789062 18.414062 C 16.210938 18.828125 16.777344 19.054688 17.375 19.054688 L 23.492188 19.054688 C 23.902344 19.054688 24.238281 19.386719 24.238281 19.789062 L 24.238281 20.523438 L 13.515625 20.523438 C 12.546875 20.523438 11.691406 21.125 11.386719 22.027344 L 10.769531 23.832031 L 10.769531 18.324219 C 10.769531 17.917969 11.105469 17.589844 11.519531 17.589844 Z M 26.445312 22.953125 L 24.449219 28.816406 C 24.347656 29.113281 24.0625 29.316406 23.738281 29.316406 L 11.519531 29.316406 C 11.277344 29.316406 11.054688 29.207031 10.914062 29.011719 C 10.769531 28.816406 10.734375 28.578125 10.808594 28.351562 L 12.804688 22.488281 C 12.90625 22.1875 13.191406 21.988281 13.515625 21.988281 L 25.734375 21.988281 C 25.976562 21.988281 26.199219 22.097656 26.339844 22.292969 C 26.484375 22.484375 26.519531 22.726562 26.445312 22.953125 Z M 26.445312 22.953125 " fill-opacity="1" fill-rule="nonzero"/></g></svg>