<svg xmlns="http://www.w3.org/2000/svg" xmlns:xlink="http://www.w3.org/1999/xlink" width="48" zoomAndPan="magnify" viewBox="0 0 36 36.000001" height="48" preserveAspectRatio="xMidYMid meet" version="1.0"><defs><clipPath id="3b9b0b1aba"><path d="M 0.488281 12 L 6 12 L 6 15 L 0.488281 15 Z M 0.488281 12 " clip-rule="nonzero"/></clipPath><clipPath id="81f4130284"><path d="M 29 20 L 35.511719 20 L 35.511719 23 L 29 23 Z M 29 20 " clip-rule="nonzero"/></clipPath><clipPath id="2ca3852699"><path d="M 0.488281 12 L 6 12 L 6 15 L 0.488281 15 Z M 0.488281 12 " clip-rule="nonzero"/></clipPath><clipPath id="6c85514d4d"><path d="M 29 20 L 35.511719 20 L 35.511719 23 L 29 23 Z M 29 20 " clip-rule="nonzero"/></clipPath><clipPath id="a474edf707"><path d="M 0.488281 12 L 6 12 L 6 15 L 0.488281 15 Z M 0.488281 12 " clip-rule="nonzero"/></clipPath><clipPath id="1270b08b93"><path d="M 29 20 L 35.511719 20 L 35.511719 23 L 29 23 Z M 29 20 " clip-rule="nonzero"/></clipPath></defs><path fill="#000000" d="M 33.648438 9.136719 C 33.652344 8.15625 33.464844 7.210938 33.09375 6.304688 C 32.722656 5.394531 32.191406 4.59375 31.5 3.894531 C 31.148438 3.5625 30.769531 3.265625 30.363281 3.003906 C 29.957031 2.742188 29.527344 2.519531 29.078125 2.339844 C 28.628906 2.160156 28.167969 2.023438 27.691406 1.933594 C 27.214844 1.839844 26.734375 1.796875 26.253906 1.796875 C 25.769531 1.796875 25.289062 1.839844 24.8125 1.933594 C 24.339844 2.023438 23.875 2.160156 23.425781 2.339844 C 22.976562 2.519531 22.546875 2.742188 22.140625 3.003906 C 21.734375 3.265625 21.355469 3.5625 21.003906 3.894531 L 18.457031 6.445312 C 18.289062 6.621094 18.207031 6.828125 18.210938 7.070312 C 18.214844 7.308594 18.300781 7.515625 18.472656 7.6875 C 18.640625 7.859375 18.847656 7.945312 19.089844 7.949219 C 19.332031 7.953125 19.539062 7.871094 19.714844 7.703125 L 22.265625 5.15625 C 22.527344 4.894531 22.8125 4.660156 23.117188 4.457031 C 23.425781 4.25 23.75 4.078125 24.09375 3.9375 C 24.433594 3.796875 24.789062 3.6875 25.152344 3.617188 C 25.511719 3.546875 25.878906 3.507812 26.25 3.511719 C 26.621094 3.511719 26.984375 3.546875 27.347656 3.617188 C 27.710938 3.691406 28.0625 3.796875 28.40625 3.941406 C 28.746094 4.082031 29.070312 4.253906 29.378906 4.460938 C 29.6875 4.667969 29.972656 4.898438 30.234375 5.160156 C 30.492188 5.421875 30.726562 5.707031 30.933594 6.015625 C 31.140625 6.324219 31.3125 6.648438 31.453125 6.988281 C 31.597656 7.332031 31.703125 7.683594 31.773438 8.046875 C 31.847656 8.410156 31.882812 8.773438 31.882812 9.144531 C 31.882812 9.515625 31.847656 9.878906 31.777344 10.242188 C 31.707031 10.605469 31.597656 10.957031 31.457031 11.300781 C 31.316406 11.644531 31.144531 11.96875 30.9375 12.277344 C 30.734375 12.582031 30.5 12.867188 30.238281 13.128906 L 23.773438 19.59375 C 23.511719 19.855469 23.226562 20.089844 22.917969 20.296875 C 22.613281 20.5 22.285156 20.675781 21.945312 20.816406 C 21.601562 20.957031 21.25 21.0625 20.886719 21.136719 C 20.523438 21.207031 20.15625 21.242188 19.785156 21.242188 C 19.417969 21.242188 19.050781 21.207031 18.6875 21.136719 C 18.324219 21.0625 17.972656 20.957031 17.628906 20.816406 C 17.289062 20.675781 16.960938 20.5 16.652344 20.296875 C 16.347656 20.089844 16.0625 19.855469 15.800781 19.59375 C 15.242188 19.039062 14.820312 18.398438 14.527344 17.667969 C 14.4375 17.4375 14.277344 17.277344 14.050781 17.179688 C 13.824219 17.085938 13.597656 17.082031 13.371094 17.175781 C 13.140625 17.265625 12.980469 17.425781 12.882812 17.652344 C 12.785156 17.875 12.785156 18.105469 12.875 18.332031 C 13.257812 19.285156 13.8125 20.128906 14.539062 20.855469 C 14.890625 21.1875 15.269531 21.484375 15.675781 21.746094 C 16.085938 22.007812 16.511719 22.226562 16.960938 22.40625 C 17.410156 22.585938 17.875 22.722656 18.347656 22.8125 C 18.824219 22.90625 19.304688 22.949219 19.785156 22.949219 C 20.269531 22.949219 20.75 22.90625 21.226562 22.8125 C 21.699219 22.722656 22.164062 22.585938 22.613281 22.40625 C 23.0625 22.226562 23.488281 22.007812 23.898438 21.746094 C 24.304688 21.484375 24.683594 21.1875 25.035156 20.855469 L 31.5 14.390625 C 32.191406 13.691406 32.722656 12.886719 33.097656 11.976562 C 33.46875 11.066406 33.652344 10.121094 33.648438 9.136719 Z M 33.648438 9.136719 " fill-opacity="1" fill-rule="nonzero"/><path fill="#000000" d="M 2.238281 25.765625 C 2.234375 26.746094 2.417969 27.691406 2.789062 28.601562 C 3.160156 29.511719 3.691406 30.316406 4.382812 31.011719 C 4.730469 31.351562 5.105469 31.65625 5.511719 31.925781 C 5.917969 32.191406 6.34375 32.417969 6.792969 32.601562 C 7.246094 32.785156 7.707031 32.925781 8.183594 33.019531 C 8.660156 33.113281 9.144531 33.160156 9.628906 33.160156 C 10.113281 33.160156 10.597656 33.113281 11.074219 33.019531 C 11.550781 32.925781 12.011719 32.785156 12.464844 32.601562 C 12.914062 32.417969 13.339844 32.191406 13.746094 31.925781 C 14.152344 31.65625 14.527344 31.351562 14.875 31.011719 L 17.433594 28.453125 C 17.601562 28.28125 17.679688 28.070312 17.679688 27.832031 C 17.675781 27.589844 17.589844 27.382812 17.417969 27.214844 C 17.246094 27.042969 17.042969 26.957031 16.800781 26.953125 C 16.558594 26.949219 16.351562 27.03125 16.175781 27.195312 L 13.617188 29.753906 C 13.355469 30.015625 13.070312 30.246094 12.761719 30.453125 C 12.453125 30.65625 12.128906 30.832031 11.789062 30.972656 C 11.445312 31.113281 11.09375 31.21875 10.730469 31.292969 C 10.367188 31.363281 10 31.398438 9.632812 31.398438 C 9.261719 31.398438 8.894531 31.363281 8.53125 31.289062 C 8.167969 31.21875 7.816406 31.109375 7.476562 30.96875 C 7.132812 30.828125 6.808594 30.652344 6.5 30.449219 C 6.195312 30.242188 5.910156 30.007812 5.648438 29.746094 C 5.386719 29.484375 5.152344 29.203125 4.945312 28.894531 C 4.742188 28.585938 4.566406 28.261719 4.425781 27.917969 C 4.285156 27.578125 4.175781 27.226562 4.105469 26.863281 C 4.03125 26.5 3.996094 26.132812 3.996094 25.765625 C 3.996094 25.394531 4.03125 25.027344 4.101562 24.664062 C 4.175781 24.300781 4.28125 23.949219 4.421875 23.609375 C 4.5625 23.265625 4.738281 22.941406 4.941406 22.632812 C 5.148438 22.324219 5.382812 22.039062 5.640625 21.777344 L 12.105469 15.3125 C 12.273438 15.148438 12.445312 14.996094 12.632812 14.851562 C 12.816406 14.710938 13.007812 14.578125 13.207031 14.460938 C 13.410156 14.339844 13.617188 14.234375 13.828125 14.140625 C 14.042969 14.046875 14.261719 13.96875 14.484375 13.902344 C 14.710938 13.835938 14.9375 13.785156 15.164062 13.746094 C 15.394531 13.707031 15.628906 13.683594 15.859375 13.671875 C 16.09375 13.664062 16.324219 13.667969 16.558594 13.6875 C 16.789062 13.707031 17.019531 13.738281 17.25 13.789062 C 17.476562 13.835938 17.703125 13.898438 17.921875 13.972656 C 18.144531 14.046875 18.359375 14.136719 18.566406 14.238281 C 18.777344 14.339844 18.980469 14.453125 19.175781 14.582031 C 19.371094 14.707031 19.558594 14.847656 19.738281 14.996094 C 19.914062 15.148438 20.082031 15.308594 20.242188 15.480469 C 20.402344 15.648438 20.546875 15.828125 20.683594 16.019531 C 20.820312 16.207031 20.945312 16.40625 21.058594 16.609375 C 21.167969 16.8125 21.269531 17.023438 21.355469 17.242188 C 21.445312 17.46875 21.605469 17.632812 21.832031 17.730469 C 22.058594 17.824219 22.285156 17.828125 22.511719 17.734375 C 22.742188 17.644531 22.902344 17.484375 23 17.257812 C 23.097656 17.03125 23.097656 16.804688 23.007812 16.578125 C 22.894531 16.292969 22.761719 16.015625 22.613281 15.746094 C 22.46875 15.476562 22.304688 15.21875 22.125 14.96875 C 21.945312 14.722656 21.75 14.484375 21.542969 14.261719 C 21.332031 14.035156 21.113281 13.824219 20.878906 13.628906 C 20.644531 13.433594 20.398438 13.25 20.140625 13.082031 C 19.882812 12.917969 19.617188 12.765625 19.339844 12.632812 C 19.0625 12.5 18.78125 12.382812 18.492188 12.285156 C 18.199219 12.183594 17.90625 12.105469 17.605469 12.042969 C 17.304688 11.980469 17.003906 11.9375 16.699219 11.910156 C 16.390625 11.886719 16.085938 11.882812 15.78125 11.894531 C 15.472656 11.90625 15.167969 11.9375 14.867188 11.988281 C 14.566406 12.039062 14.265625 12.109375 13.972656 12.195312 C 13.679688 12.285156 13.390625 12.390625 13.113281 12.511719 C 12.832031 12.632812 12.558594 12.773438 12.296875 12.929688 C 12.03125 13.085938 11.777344 13.257812 11.535156 13.449219 C 11.292969 13.636719 11.066406 13.835938 10.847656 14.054688 L 4.382812 20.519531 C 3.691406 21.214844 3.160156 22.019531 2.789062 22.929688 C 2.417969 23.835938 2.234375 24.785156 2.238281 25.765625 Z M 2.238281 25.765625 " fill-opacity="1" fill-rule="nonzero"/><path fill="#000000" d="M 10.257812 8.511719 L 5.640625 3.894531 C 5.464844 3.726562 5.257812 3.644531 5.015625 3.644531 C 4.773438 3.648438 4.566406 3.734375 4.394531 3.90625 C 4.222656 4.078125 4.132812 4.285156 4.132812 4.527344 C 4.128906 4.773438 4.214844 4.980469 4.382812 5.15625 L 9 9.773438 C 9.175781 9.941406 9.386719 10.027344 9.628906 10.027344 C 9.875 10.027344 10.082031 9.941406 10.257812 9.773438 C 10.433594 9.597656 10.519531 9.386719 10.519531 9.140625 C 10.519531 8.898438 10.433594 8.6875 10.257812 8.511719 Z M 10.257812 8.511719 " fill-opacity="1" fill-rule="nonzero"/><path fill="#000000" d="M 15.136719 4.523438 L 15.136719 0.832031 C 15.136719 0.585938 15.050781 0.375 14.875 0.203125 C 14.703125 0.0273438 14.492188 -0.0585938 14.246094 -0.0585938 C 14 -0.0585938 13.789062 0.0273438 13.617188 0.203125 C 13.441406 0.375 13.355469 0.585938 13.355469 0.832031 L 13.355469 4.523438 C 13.355469 4.769531 13.441406 4.980469 13.617188 5.15625 C 13.789062 5.328125 14 5.414062 14.246094 5.414062 C 14.492188 5.414062 14.703125 5.328125 14.875 5.15625 C 15.050781 4.980469 15.136719 4.769531 15.136719 4.523438 Z M 15.136719 4.523438 " fill-opacity="1" fill-rule="nonzero"/><g clip-path="url(#3b9b0b1aba)"><path fill="#000000" d="M 1.316406 14.652344 L 5.011719 14.652344 C 5.257812 14.652344 5.46875 14.5625 5.640625 14.390625 C 5.816406 14.214844 5.902344 14.003906 5.902344 13.761719 C 5.902344 13.515625 5.816406 13.304688 5.640625 13.128906 C 5.46875 12.957031 5.257812 12.871094 5.011719 12.871094 L 1.316406 12.871094 C 1.070312 12.871094 0.863281 12.957031 0.6875 13.128906 C 0.515625 13.304688 0.425781 13.515625 0.425781 13.761719 C 0.425781 14.003906 0.515625 14.214844 0.6875 14.390625 C 0.863281 14.5625 1.070312 14.652344 1.316406 14.652344 Z M 1.316406 14.652344 " fill-opacity="1" fill-rule="nonzero"/></g><path fill="#000000" d="M 26.882812 25.136719 C 26.707031 24.972656 26.5 24.894531 26.257812 24.898438 C 26.019531 24.902344 25.8125 24.988281 25.644531 25.15625 C 25.476562 25.328125 25.386719 25.53125 25.382812 25.773438 C 25.378906 26.011719 25.460938 26.21875 25.621094 26.394531 L 30.238281 31.011719 C 30.417969 31.179688 30.625 31.265625 30.871094 31.265625 C 31.113281 31.265625 31.324219 31.179688 31.5 31.011719 C 31.671875 30.839844 31.757812 30.628906 31.757812 30.382812 C 31.757812 30.136719 31.671875 29.925781 31.5 29.753906 Z M 26.882812 25.136719 " fill-opacity="1" fill-rule="nonzero"/><g clip-path="url(#81f4130284)"><path fill="#000000" d="M 34.5625 20.257812 L 30.871094 20.257812 C 30.625 20.257812 30.414062 20.34375 30.238281 20.519531 C 30.066406 20.691406 29.980469 20.902344 29.980469 21.148438 C 29.980469 21.394531 30.066406 21.605469 30.238281 21.777344 C 30.414062 21.953125 30.625 22.039062 30.871094 22.039062 L 34.5625 22.039062 C 34.808594 22.039062 35.019531 21.953125 35.191406 21.777344 C 35.367188 21.605469 35.453125 21.394531 35.453125 21.148438 C 35.453125 20.902344 35.367188 20.691406 35.191406 20.519531 C 35.019531 20.34375 34.808594 20.257812 34.5625 20.257812 Z M 34.5625 20.257812 " fill-opacity="1" fill-rule="nonzero"/></g><path fill="#000000" d="M 22.523438 34.078125 L 22.523438 30.382812 C 22.523438 30.136719 22.4375 29.925781 22.265625 29.753906 C 22.089844 29.578125 21.878906 29.492188 21.636719 29.492188 C 21.390625 29.492188 21.179688 29.578125 21.003906 29.753906 C 20.832031 29.925781 20.746094 30.136719 20.746094 30.382812 L 20.746094 34.078125 C 20.746094 34.324219 20.832031 34.53125 21.003906 34.707031 C 21.179688 34.878906 21.390625 34.96875 21.636719 34.96875 C 21.878906 34.96875 22.089844 34.878906 22.265625 34.707031 C 22.4375 34.53125 22.523438 34.324219 22.523438 34.078125 Z M 22.523438 34.078125 " fill-opacity="1" fill-rule="nonzero"/><path fill="#000000" d="M 33.648438 9.136719 C 33.652344 8.15625 33.464844 7.210938 33.09375 6.304688 C 32.722656 5.394531 32.191406 4.59375 31.5 3.894531 C 31.148438 3.5625 30.769531 3.265625 30.363281 3.003906 C 29.957031 2.742188 29.527344 2.519531 29.078125 2.339844 C 28.628906 2.160156 28.167969 2.023438 27.691406 1.933594 C 27.214844 1.839844 26.734375 1.796875 26.253906 1.796875 C 25.769531 1.796875 25.289062 1.839844 24.8125 1.933594 C 24.339844 2.023438 23.875 2.160156 23.425781 2.339844 C 22.976562 2.519531 22.546875 2.742188 22.140625 3.003906 C 21.734375 3.265625 21.355469 3.5625 21.003906 3.894531 L 18.457031 6.445312 C 18.289062 6.621094 18.207031 6.828125 18.210938 7.070312 C 18.214844 7.308594 18.300781 7.515625 18.472656 7.6875 C 18.640625 7.859375 18.847656 7.945312 19.089844 7.949219 C 19.332031 7.953125 19.539062 7.871094 19.714844 7.703125 L 22.265625 5.15625 C 22.527344 4.894531 22.8125 4.660156 23.117188 4.457031 C 23.425781 4.25 23.75 4.078125 24.09375 3.9375 C 24.433594 3.796875 24.789062 3.6875 25.152344 3.617188 C 25.511719 3.546875 25.878906 3.507812 26.25 3.511719 C 26.621094 3.511719 26.984375 3.546875 27.347656 3.617188 C 27.710938 3.691406 28.0625 3.796875 28.40625 3.941406 C 28.746094 4.082031 29.070312 4.253906 29.378906 4.460938 C 29.6875 4.667969 29.972656 4.898438 30.234375 5.160156 C 30.492188 5.421875 30.726562 5.707031 30.933594 6.015625 C 31.140625 6.324219 31.3125 6.648438 31.453125 6.988281 C 31.597656 7.332031 31.703125 7.683594 31.773438 8.046875 C 31.847656 8.410156 31.882812 8.773438 31.882812 9.144531 C 31.882812 9.515625 31.847656 9.878906 31.777344 10.242188 C 31.707031 10.605469 31.597656 10.957031 31.457031 11.300781 C 31.316406 11.644531 31.144531 11.96875 30.9375 12.277344 C 30.734375 12.582031 30.5 12.867188 30.238281 13.128906 L 23.773438 19.59375 C 23.511719 19.855469 23.226562 20.089844 22.917969 20.296875 C 22.613281 20.5 22.285156 20.675781 21.945312 20.816406 C 21.601562 20.957031 21.25 21.0625 20.886719 21.136719 C 20.523438 21.207031 20.15625 21.242188 19.785156 21.242188 C 19.417969 21.242188 19.050781 21.207031 18.6875 21.136719 C 18.324219 21.0625 17.972656 20.957031 17.628906 20.816406 C 17.289062 20.675781 16.960938 20.5 16.652344 20.296875 C 16.347656 20.089844 16.0625 19.855469 15.800781 19.59375 C 15.242188 19.039062 14.820312 18.398438 14.527344 17.667969 C 14.4375 17.4375 14.277344 17.277344 14.050781 17.179688 C 13.824219 17.085938 13.597656 17.082031 13.371094 17.175781 C 13.140625 17.265625 12.980469 17.425781 12.882812 17.652344 C 12.785156 17.875 12.785156 18.105469 12.875 18.332031 C 13.257812 19.285156 13.8125 20.128906 14.539062 20.855469 C 14.890625 21.1875 15.269531 21.484375 15.675781 21.746094 C 16.085938 22.007812 16.511719 22.226562 16.960938 22.40625 C 17.410156 22.585938 17.875 22.722656 18.347656 22.8125 C 18.824219 22.90625 19.304688 22.949219 19.785156 22.949219 C 20.269531 22.949219 20.75 22.90625 21.226562 22.8125 C 21.699219 22.722656 22.164062 22.585938 22.613281 22.40625 C 23.0625 22.226562 23.488281 22.007812 23.898438 21.746094 C 24.304688 21.484375 24.683594 21.1875 25.035156 20.855469 L 31.5 14.390625 C 32.191406 13.691406 32.722656 12.886719 33.097656 11.976562 C 33.46875 11.066406 33.652344 10.121094 33.648438 9.136719 Z M 33.648438 9.136719 " fill-opacity="1" fill-rule="nonzero"/><path fill="#000000" d="M 2.238281 25.765625 C 2.234375 26.746094 2.417969 27.691406 2.789062 28.601562 C 3.160156 29.511719 3.691406 30.316406 4.382812 31.011719 C 4.730469 31.351562 5.105469 31.65625 5.511719 31.925781 C 5.917969 32.191406 6.34375 32.417969 6.792969 32.601562 C 7.246094 32.785156 7.707031 32.925781 8.183594 33.019531 C 8.660156 33.113281 9.144531 33.160156 9.628906 33.160156 C 10.113281 33.160156 10.597656 33.113281 11.074219 33.019531 C 11.550781 32.925781 12.011719 32.785156 12.464844 32.601562 C 12.914062 32.417969 13.339844 32.191406 13.746094 31.925781 C 14.152344 31.65625 14.527344 31.351562 14.875 31.011719 L 17.433594 28.453125 C 17.601562 28.28125 17.679688 28.070312 17.679688 27.832031 C 17.675781 27.589844 17.589844 27.382812 17.417969 27.214844 C 17.246094 27.042969 17.042969 26.957031 16.800781 26.953125 C 16.558594 26.949219 16.351562 27.03125 16.175781 27.195312 L 13.617188 29.753906 C 13.355469 30.015625 13.070312 30.246094 12.761719 30.453125 C 12.453125 30.65625 12.128906 30.832031 11.789062 30.972656 C 11.445312 31.113281 11.09375 31.21875 10.730469 31.292969 C 10.367188 31.363281 10 31.398438 9.632812 31.398438 C 9.261719 31.398438 8.894531 31.363281 8.53125 31.289062 C 8.167969 31.21875 7.816406 31.109375 7.476562 30.96875 C 7.132812 30.828125 6.808594 30.652344 6.5 30.449219 C 6.195312 30.242188 5.910156 30.007812 5.648438 29.746094 C 5.386719 29.484375 5.152344 29.203125 4.945312 28.894531 C 4.742188 28.585938 4.566406 28.261719 4.425781 27.917969 C 4.285156 27.578125 4.175781 27.226562 4.105469 26.863281 C 4.03125 26.5 3.996094 26.132812 3.996094 25.765625 C 3.996094 25.394531 4.03125 25.027344 4.101562 24.664062 C 4.175781 24.300781 4.28125 23.949219 4.421875 23.609375 C 4.5625 23.265625 4.738281 22.941406 4.941406 22.632812 C 5.148438 22.324219 5.382812 22.039062 5.640625 21.777344 L 12.105469 15.3125 C 12.273438 15.148438 12.445312 14.996094 12.632812 14.851562 C 12.816406 14.710938 13.007812 14.578125 13.207031 14.460938 C 13.410156 14.339844 13.617188 14.234375 13.828125 14.140625 C 14.042969 14.046875 14.261719 13.96875 14.484375 13.902344 C 14.710938 13.835938 14.9375 13.785156 15.164062 13.746094 C 15.394531 13.707031 15.628906 13.683594 15.859375 13.671875 C 16.09375 13.664062 16.324219 13.667969 16.558594 13.6875 C 16.789062 13.707031 17.019531 13.738281 17.25 13.789062 C 17.476562 13.835938 17.703125 13.898438 17.921875 13.972656 C 18.144531 14.046875 18.359375 14.136719 18.566406 14.238281 C 18.777344 14.339844 18.980469 14.453125 19.175781 14.582031 C 19.371094 14.707031 19.558594 14.847656 19.738281 14.996094 C 19.914062 15.148438 20.082031 15.308594 20.242188 15.480469 C 20.402344 15.648438 20.546875 15.828125 20.683594 16.019531 C 20.820312 16.207031 20.945312 16.40625 21.058594 16.609375 C 21.167969 16.8125 21.269531 17.023438 21.355469 17.242188 C 21.445312 17.46875 21.605469 17.632812 21.832031 17.730469 C 22.058594 17.824219 22.285156 17.828125 22.511719 17.734375 C 22.742188 17.644531 22.902344 17.484375 23 17.257812 C 23.097656 17.03125 23.097656 16.804688 23.007812 16.578125 C 22.894531 16.292969 22.761719 16.015625 22.613281 15.746094 C 22.46875 15.476562 22.304688 15.21875 22.125 14.96875 C 21.945312 14.722656 21.75 14.484375 21.542969 14.261719 C 21.332031 14.035156 21.113281 13.824219 20.878906 13.628906 C 20.644531 13.433594 20.398438 13.25 20.140625 13.082031 C 19.882812 12.917969 19.617188 12.765625 19.339844 12.632812 C 19.0625 12.5 18.78125 12.382812 18.492188 12.285156 C 18.199219 12.183594 17.90625 12.105469 17.605469 12.042969 C 17.304688 11.980469 17.003906 11.9375 16.699219 11.910156 C 16.390625 11.886719 16.085938 11.882812 15.78125 11.894531 C 15.472656 11.90625 15.167969 11.9375 14.867188 11.988281 C 14.566406 12.039062 14.265625 12.109375 13.972656 12.195312 C 13.679688 12.285156 13.390625 12.390625 13.113281 12.511719 C 12.832031 12.632812 12.558594 12.773438 12.296875 12.929688 C 12.03125 13.085938 11.777344 13.257812 11.535156 13.449219 C 11.292969 13.636719 11.066406 13.835938 10.847656 14.054688 L 4.382812 20.519531 C 3.691406 21.214844 3.160156 22.019531 2.789062 22.929688 C 2.417969 23.835938 2.234375 24.785156 2.238281 25.765625 Z M 2.238281 25.765625 " fill-opacity="1" fill-rule="nonzero"/><path fill="#000000" d="M 10.257812 8.511719 L 5.640625 3.894531 C 5.464844 3.726562 5.257812 3.644531 5.015625 3.644531 C 4.773438 3.648438 4.566406 3.734375 4.394531 3.90625 C 4.222656 4.078125 4.132812 4.285156 4.132812 4.527344 C 4.128906 4.773438 4.214844 4.980469 4.382812 5.15625 L 9 9.773438 C 9.175781 9.941406 9.386719 10.027344 9.628906 10.027344 C 9.875 10.027344 10.082031 9.941406 10.257812 9.773438 C 10.433594 9.597656 10.519531 9.386719 10.519531 9.140625 C 10.519531 8.898438 10.433594 8.6875 10.257812 8.511719 Z M 10.257812 8.511719 " fill-opacity="1" fill-rule="nonzero"/><path fill="#000000" d="M 15.136719 4.523438 L 15.136719 0.832031 C 15.136719 0.585938 15.050781 0.375 14.875 0.203125 C 14.703125 0.0273438 14.492188 -0.0585938 14.246094 -0.0585938 C 14 -0.0585938 13.789062 0.0273438 13.617188 0.203125 C 13.441406 0.375 13.355469 0.585938 13.355469 0.832031 L 13.355469 4.523438 C 13.355469 4.769531 13.441406 4.980469 13.617188 5.15625 C 13.789062 5.328125 14 5.414062 14.246094 5.414062 C 14.492188 5.414062 14.703125 5.328125 14.875 5.15625 C 15.050781 4.980469 15.136719 4.769531 15.136719 4.523438 Z M 15.136719 4.523438 " fill-opacity="1" fill-rule="nonzero"/><g clip-path="url(#2ca3852699)"><path fill="#000000" d="M 1.316406 14.652344 L 5.011719 14.652344 C 5.257812 14.652344 5.46875 14.5625 5.640625 14.390625 C 5.816406 14.214844 5.902344 14.003906 5.902344 13.761719 C 5.902344 13.515625 5.816406 13.304688 5.640625 13.128906 C 5.46875 12.957031 5.257812 12.871094 5.011719 12.871094 L 1.316406 12.871094 C 1.070312 12.871094 0.863281 12.957031 0.6875 13.128906 C 0.515625 13.304688 0.425781 13.515625 0.425781 13.761719 C 0.425781 14.003906 0.515625 14.214844 0.6875 14.390625 C 0.863281 14.5625 1.070312 14.652344 1.316406 14.652344 Z M 1.316406 14.652344 " fill-opacity="1" fill-rule="nonzero"/></g><path fill="#000000" d="M 26.882812 25.136719 C 26.707031 24.972656 26.5 24.894531 26.257812 24.898438 C 26.019531 24.902344 25.8125 24.988281 25.644531 25.15625 C 25.476562 25.328125 25.386719 25.53125 25.382812 25.773438 C 25.378906 26.011719 25.460938 26.21875 25.621094 26.394531 L 30.238281 31.011719 C 30.417969 31.179688 30.625 31.265625 30.871094 31.265625 C 31.113281 31.265625 31.324219 31.179688 31.5 31.011719 C 31.671875 30.839844 31.757812 30.628906 31.757812 30.382812 C 31.757812 30.136719 31.671875 29.925781 31.5 29.753906 Z M 26.882812 25.136719 " fill-opacity="1" fill-rule="nonzero"/><g clip-path="url(#6c85514d4d)"><path fill="#000000" d="M 34.5625 20.257812 L 30.871094 20.257812 C 30.625 20.257812 30.414062 20.34375 30.238281 20.519531 C 30.066406 20.691406 29.980469 20.902344 29.980469 21.148438 C 29.980469 21.394531 30.066406 21.605469 30.238281 21.777344 C 30.414062 21.953125 30.625 22.039062 30.871094 22.039062 L 34.5625 22.039062 C 34.808594 22.039062 35.019531 21.953125 35.191406 21.777344 C 35.367188 21.605469 35.453125 21.394531 35.453125 21.148438 C 35.453125 20.902344 35.367188 20.691406 35.191406 20.519531 C 35.019531 20.34375 34.808594 20.257812 34.5625 20.257812 Z M 34.5625 20.257812 " fill-opacity="1" fill-rule="nonzero"/></g><path fill="#000000" d="M 22.523438 34.078125 L 22.523438 30.382812 C 22.523438 30.136719 22.4375 29.925781 22.265625 29.753906 C 22.089844 29.578125 21.878906 29.492188 21.636719 29.492188 C 21.390625 29.492188 21.179688 29.578125 21.003906 29.753906 C 20.832031 29.925781 20.746094 30.136719 20.746094 30.382812 L 20.746094 34.078125 C 20.746094 34.324219 20.832031 34.53125 21.003906 34.707031 C 21.179688 34.878906 21.390625 34.96875 21.636719 34.96875 C 21.878906 34.96875 22.089844 34.878906 22.265625 34.707031 C 22.4375 34.53125 22.523438 34.324219 22.523438 34.078125 Z M 22.523438 34.078125 " fill-opacity="1" fill-rule="nonzero"/><path fill="#000000" d="M 33.648438 9.136719 C 33.652344 8.15625 33.464844 7.210938 33.09375 6.304688 C 32.722656 5.394531 32.191406 4.59375 31.5 3.894531 C 31.148438 3.5625 30.769531 3.265625 30.363281 3.003906 C 29.957031 2.742188 29.527344 2.519531 29.078125 2.339844 C 28.628906 2.160156 28.167969 2.023438 27.691406 1.933594 C 27.214844 1.839844 26.734375 1.796875 26.253906 1.796875 C 25.769531 1.796875 25.289062 1.839844 24.8125 1.933594 C 24.339844 2.023438 23.875 2.160156 23.425781 2.339844 C 22.976562 2.519531 22.546875 2.742188 22.140625 3.003906 C 21.734375 3.265625 21.355469 3.5625 21.003906 3.894531 L 18.457031 6.445312 C 18.289062 6.621094 18.207031 6.828125 18.210938 7.070312 C 18.214844 7.308594 18.300781 7.515625 18.472656 7.6875 C 18.640625 7.859375 18.847656 7.945312 19.089844 7.949219 C 19.332031 7.953125 19.539062 7.871094 19.714844 7.703125 L 22.265625 5.15625 C 22.527344 4.894531 22.8125 4.660156 23.117188 4.457031 C 23.425781 4.25 23.75 4.078125 24.09375 3.9375 C 24.433594 3.796875 24.789062 3.6875 25.152344 3.617188 C 25.511719 3.546875 25.878906 3.507812 26.25 3.511719 C 26.621094 3.511719 26.984375 3.546875 27.347656 3.617188 C 27.710938 3.691406 28.0625 3.796875 28.40625 3.941406 C 28.746094 4.082031 29.070312 4.253906 29.378906 4.460938 C 29.6875 4.667969 29.972656 4.898438 30.234375 5.160156 C 30.492188 5.421875 30.726562 5.707031 30.933594 6.015625 C 31.140625 6.324219 31.3125 6.648438 31.453125 6.988281 C 31.597656 7.332031 31.703125 7.683594 31.773438 8.046875 C 31.847656 8.410156 31.882812 8.773438 31.882812 9.144531 C 31.882812 9.515625 31.847656 9.878906 31.777344 10.242188 C 31.707031 10.605469 31.597656 10.957031 31.457031 11.300781 C 31.316406 11.644531 31.144531 11.96875 30.9375 12.277344 C 30.734375 12.582031 30.5 12.867188 30.238281 13.128906 L 23.773438 19.59375 C 23.511719 19.855469 23.226562 20.089844 22.917969 20.296875 C 22.613281 20.5 22.285156 20.675781 21.945312 20.816406 C 21.601562 20.957031 21.25 21.0625 20.886719 21.136719 C 20.523438 21.207031 20.15625 21.242188 19.785156 21.242188 C 19.417969 21.242188 19.050781 21.207031 18.6875 21.136719 C 18.324219 21.0625 17.972656 20.957031 17.628906 20.816406 C 17.289062 20.675781 16.960938 20.5 16.652344 20.296875 C 16.347656 20.089844 16.0625 19.855469 15.800781 19.59375 C 15.242188 19.039062 14.820312 18.398438 14.527344 17.667969 C 14.4375 17.4375 14.277344 17.277344 14.050781 17.179688 C 13.824219 17.085938 13.597656 17.082031 13.371094 17.175781 C 13.140625 17.265625 12.980469 17.425781 12.882812 17.652344 C 12.785156 17.875 12.785156 18.105469 12.875 18.332031 C 13.257812 19.285156 13.8125 20.128906 14.539062 20.855469 C 14.890625 21.1875 15.269531 21.484375 15.675781 21.746094 C 16.085938 22.007812 16.511719 22.226562 16.960938 22.40625 C 17.410156 22.585938 17.875 22.722656 18.347656 22.8125 C 18.824219 22.90625 19.304688 22.949219 19.785156 22.949219 C 20.269531 22.949219 20.75 22.90625 21.226562 22.8125 C 21.699219 22.722656 22.164062 22.585938 22.613281 22.40625 C 23.0625 22.226562 23.488281 22.007812 23.898438 21.746094 C 24.304688 21.484375 24.683594 21.1875 25.035156 20.855469 L 31.5 14.390625 C 32.191406 13.691406 32.722656 12.886719 33.097656 11.976562 C 33.46875 11.066406 33.652344 10.121094 33.648438 9.136719 Z M 33.648438 9.136719 " fill-opacity="1" fill-rule="nonzero"/><path fill="#000000" d="M 2.238281 25.765625 C 2.234375 26.746094 2.417969 27.691406 2.789062 28.601562 C 3.160156 29.511719 3.691406 30.316406 4.382812 31.011719 C 4.730469 31.351562 5.105469 31.65625 5.511719 31.925781 C 5.917969 32.191406 6.34375 32.417969 6.792969 32.601562 C 7.246094 32.785156 7.707031 32.925781 8.183594 33.019531 C 8.660156 33.113281 9.144531 33.160156 9.628906 33.160156 C 10.113281 33.160156 10.597656 33.113281 11.074219 33.019531 C 11.550781 32.925781 12.011719 32.785156 12.464844 32.601562 C 12.914062 32.417969 13.339844 32.191406 13.746094 31.925781 C 14.152344 31.65625 14.527344 31.351562 14.875 31.011719 L 17.433594 28.453125 C 17.601562 28.28125 17.679688 28.070312 17.679688 27.832031 C 17.675781 27.589844 17.589844 27.382812 17.417969 27.214844 C 17.246094 27.042969 17.042969 26.957031 16.800781 26.953125 C 16.558594 26.949219 16.351562 27.03125 16.175781 27.195312 L 13.617188 29.753906 C 13.355469 30.015625 13.070312 30.246094 12.761719 30.453125 C 12.453125 30.65625 12.128906 30.832031 11.789062 30.972656 C 11.445312 31.113281 11.09375 31.21875 10.730469 31.292969 C 10.367188 31.363281 10 31.398438 9.632812 31.398438 C 9.261719 31.398438 8.894531 31.363281 8.53125 31.289062 C 8.167969 31.21875 7.816406 31.109375 7.476562 30.96875 C 7.132812 30.828125 6.808594 30.652344 6.5 30.449219 C 6.195312 30.242188 5.910156 30.007812 5.648438 29.746094 C 5.386719 29.484375 5.152344 29.203125 4.945312 28.894531 C 4.742188 28.585938 4.566406 28.261719 4.425781 27.917969 C 4.285156 27.578125 4.175781 27.226562 4.105469 26.863281 C 4.03125 26.5 3.996094 26.132812 3.996094 25.765625 C 3.996094 25.394531 4.03125 25.027344 4.101562 24.664062 C 4.175781 24.300781 4.28125 23.949219 4.421875 23.609375 C 4.5625 23.265625 4.738281 22.941406 4.941406 22.632812 C 5.148438 22.324219 5.382812 22.039062 5.640625 21.777344 L 12.105469 15.3125 C 12.273438 15.148438 12.445312 14.996094 12.632812 14.851562 C 12.816406 14.710938 13.007812 14.578125 13.207031 14.460938 C 13.410156 14.339844 13.617188 14.234375 13.828125 14.140625 C 14.042969 14.046875 14.261719 13.96875 14.484375 13.902344 C 14.710938 13.835938 14.9375 13.785156 15.164062 13.746094 C 15.394531 13.707031 15.628906 13.683594 15.859375 13.671875 C 16.09375 13.664062 16.324219 13.667969 16.558594 13.6875 C 16.789062 13.707031 17.019531 13.738281 17.25 13.789062 C 17.476562 13.835938 17.703125 13.898438 17.921875 13.972656 C 18.144531 14.046875 18.359375 14.136719 18.566406 14.238281 C 18.777344 14.339844 18.980469 14.453125 19.175781 14.582031 C 19.371094 14.707031 19.558594 14.847656 19.738281 14.996094 C 19.914062 15.148438 20.082031 15.308594 20.242188 15.480469 C 20.402344 15.648438 20.546875 15.828125 20.683594 16.019531 C 20.820312 16.207031 20.945312 16.40625 21.058594 16.609375 C 21.167969 16.8125 21.269531 17.023438 21.355469 17.242188 C 21.445312 17.46875 21.605469 17.632812 21.832031 17.730469 C 22.058594 17.824219 22.285156 17.828125 22.511719 17.734375 C 22.742188 17.644531 22.902344 17.484375 23 17.257812 C 23.097656 17.03125 23.097656 16.804688 23.007812 16.578125 C 22.894531 16.292969 22.761719 16.015625 22.613281 15.746094 C 22.46875 15.476562 22.304688 15.21875 22.125 14.96875 C 21.945312 14.722656 21.75 14.484375 21.542969 14.261719 C 21.332031 14.035156 21.113281 13.824219 20.878906 13.628906 C 20.644531 13.433594 20.398438 13.25 20.140625 13.082031 C 19.882812 12.917969 19.617188 12.765625 19.339844 12.632812 C 19.0625 12.5 18.78125 12.382812 18.492188 12.285156 C 18.199219 12.183594 17.90625 12.105469 17.605469 12.042969 C 17.304688 11.980469 17.003906 11.9375 16.699219 11.910156 C 16.390625 11.886719 16.085938 11.882812 15.78125 11.894531 C 15.472656 11.90625 15.167969 11.9375 14.867188 11.988281 C 14.566406 12.039062 14.265625 12.109375 13.972656 12.195312 C 13.679688 12.285156 13.390625 12.390625 13.113281 12.511719 C 12.832031 12.632812 12.558594 12.773438 12.296875 12.929688 C 12.03125 13.085938 11.777344 13.257812 11.535156 13.449219 C 11.292969 13.636719 11.066406 13.835938 10.847656 14.054688 L 4.382812 20.519531 C 3.691406 21.214844 3.160156 22.019531 2.789062 22.929688 C 2.417969 23.835938 2.234375 24.785156 2.238281 25.765625 Z M 2.238281 25.765625 " fill-opacity="1" fill-rule="nonzero"/><path fill="#000000" d="M 10.257812 8.511719 L 5.640625 3.894531 C 5.464844 3.726562 5.257812 3.644531 5.015625 3.644531 C 4.773438 3.648438 4.566406 3.734375 4.394531 3.90625 C 4.222656 4.078125 4.132812 4.285156 4.132812 4.527344 C 4.128906 4.773438 4.214844 4.980469 4.382812 5.15625 L 9 9.773438 C 9.175781 9.941406 9.386719 10.027344 9.628906 10.027344 C 9.875 10.027344 10.082031 9.941406 10.257812 9.773438 C 10.433594 9.597656 10.519531 9.386719 10.519531 9.140625 C 10.519531 8.898438 10.433594 8.6875 10.257812 8.511719 Z M 10.257812 8.511719 " fill-opacity="1" fill-rule="nonzero"/><path fill="#000000" d="M 15.136719 4.523438 L 15.136719 0.832031 C 15.136719 0.585938 15.050781 0.375 14.875 0.203125 C 14.703125 0.0273438 14.492188 -0.0585938 14.246094 -0.0585938 C 14 -0.0585938 13.789062 0.0273438 13.617188 0.203125 C 13.441406 0.375 13.355469 0.585938 13.355469 0.832031 L 13.355469 4.523438 C 13.355469 4.769531 13.441406 4.980469 13.617188 5.15625 C 13.789062 5.328125 14 5.414062 14.246094 5.414062 C 14.492188 5.414062 14.703125 5.328125 14.875 5.15625 C 15.050781 4.980469 15.136719 4.769531 15.136719 4.523438 Z M 15.136719 4.523438 " fill-opacity="1" fill-rule="nonzero"/><g clip-path="url(#a474edf707)"><path fill="#000000" d="M 1.316406 14.652344 L 5.011719 14.652344 C 5.257812 14.652344 5.46875 14.5625 5.640625 14.390625 C 5.816406 14.214844 5.902344 14.003906 5.902344 13.761719 C 5.902344 13.515625 5.816406 13.304688 5.640625 13.128906 C 5.46875 12.957031 5.257812 12.871094 5.011719 12.871094 L 1.316406 12.871094 C 1.070312 12.871094 0.863281 12.957031 0.6875 13.128906 C 0.515625 13.304688 0.425781 13.515625 0.425781 13.761719 C 0.425781 14.003906 0.515625 14.214844 0.6875 14.390625 C 0.863281 14.5625 1.070312 14.652344 1.316406 14.652344 Z M 1.316406 14.652344 " fill-opacity="1" fill-rule="nonzero"/></g><path fill="#000000" d="M 26.882812 25.136719 C 26.707031 24.972656 26.5 24.894531 26.257812 24.898438 C 26.019531 24.902344 25.8125 24.988281 25.644531 25.15625 C 25.476562 25.328125 25.386719 25.53125 25.382812 25.773438 C 25.378906 26.011719 25.460938 26.21875 25.621094 26.394531 L 30.238281 31.011719 C 30.417969 31.179688 30.625 31.265625 30.871094 31.265625 C 31.113281 31.265625 31.324219 31.179688 31.5 31.011719 C 31.671875 30.839844 31.757812 30.628906 31.757812 30.382812 C 31.757812 30.136719 31.671875 29.925781 31.5 29.753906 Z M 26.882812 25.136719 " fill-opacity="1" fill-rule="nonzero"/><g clip-path="url(#1270b08b93)"><path fill="#000000" d="M 34.5625 20.257812 L 30.871094 20.257812 C 30.625 20.257812 30.414062 20.34375 30.238281 20.519531 C 30.066406 20.691406 29.980469 20.902344 29.980469 21.148438 C 29.980469 21.394531 30.066406 21.605469 30.238281 21.777344 C 30.414062 21.953125 30.625 22.039062 30.871094 22.039062 L 34.5625 22.039062 C 34.808594 22.039062 35.019531 21.953125 35.191406 21.777344 C 35.367188 21.605469 35.453125 21.394531 35.453125 21.148438 C 35.453125 20.902344 35.367188 20.691406 35.191406 20.519531 C 35.019531 20.34375 34.808594 20.257812 34.5625 20.257812 Z M 34.5625 20.257812 " fill-opacity="1" fill-rule="nonzero"/></g><path fill="#000000" d="M 22.523438 34.078125 L 22.523438 30.382812 C 22.523438 30.136719 22.4375 29.925781 22.265625 29.753906 C 22.089844 29.578125 21.878906 29.492188 21.636719 29.492188 C 21.390625 29.492188 21.179688 29.578125 21.003906 29.753906 C 20.832031 29.925781 20.746094 30.136719 20.746094 30.382812 L 20.746094 34.078125 C 20.746094 34.324219 20.832031 34.53125 21.003906 34.707031 C 21.179688 34.878906 21.390625 34.96875 21.636719 34.96875 C 21.878906 34.96875 22.089844 34.878906 22.265625 34.707031 C 22.4375 34.53125 22.523438 34.324219 22.523438 34.078125 Z M 22.523438 34.078125 " fill-opacity="1" fill-rule="nonzero"/></svg>