<svg xmlns="http://www.w3.org/2000/svg" xmlns:xlink="http://www.w3.org/1999/xlink" width="36" zoomAndPan="magnify" viewBox="0 0 26.88 35.25" height="47" preserveAspectRatio="xMidYMid meet" version="1.0"><defs><clipPath id="c308d29436"><path d="M 0.222656 0 L 25.925781 0 L 25.925781 34.515625 L 0.222656 34.515625 Z M 0.222656 0 " clip-rule="nonzero"/></clipPath><clipPath id="eb24899ecf"><path d="M 0.222656 0 L 25.925781 0 L 25.925781 34.515625 L 0.222656 34.515625 Z M 0.222656 0 " clip-rule="nonzero"/></clipPath><clipPath id="dc667b10de"><path d="M 0.222656 0 L 25.925781 0 L 25.925781 34.515625 L 0.222656 34.515625 Z M 0.222656 0 " clip-rule="nonzero"/></clipPath><clipPath id="6d7c40c2f8"><path d="M 0.222656 0 L 25.925781 0 L 25.925781 34.515625 L 0.222656 34.515625 Z M 0.222656 0 " clip-rule="nonzero"/></clipPath><clipPath id="3a47b1f60b"><path d="M 0.222656 0 L 25.925781 0 L 25.925781 34.515625 L 0.222656 34.515625 Z M 0.222656 0 " clip-rule="nonzero"/></clipPath><clipPath id="61dd4b1af5"><path d="M 0.222656 0 L 25.925781 0 L 25.925781 34.515625 L 0.222656 34.515625 Z M 0.222656 0 " clip-rule="nonzero"/></clipPath><clipPath id="0739686086"><path d="M 0.222656 0 L 25.925781 0 L 25.925781 34.515625 L 0.222656 34.515625 Z M 0.222656 0 " clip-rule="nonzero"/></clipPath><clipPath id="08fab2d643"><path d="M 0.222656 0 L 25.925781 0 L 25.925781 34.515625 L 0.222656 34.515625 Z M 0.222656 0 " clip-rule="nonzero"/></clipPath></defs><g clip-path="url(#c308d29436)"><path fill="#000000" d="M 21.964844 13.414062 L 21.726562 13.414062 L 21.726562 8.769531 C 21.726562 3.933594 17.84375 0 13.074219 0 C 8.300781 0 4.417969 3.933594 4.417969 8.769531 L 4.417969 13.414062 L 4.179688 13.414062 C 2 13.414062 0.226562 15.210938 0.226562 17.421875 L 0.226562 30.507812 C 0.226562 32.71875 2 34.515625 4.179688 34.515625 L 21.964844 34.515625 C 24.144531 34.515625 25.917969 32.71875 25.917969 30.507812 L 25.917969 17.421875 C 25.921875 15.210938 24.144531 13.414062 21.964844 13.414062 Z M 5.183594 8.769531 C 5.183594 4.359375 8.722656 0.773438 13.074219 0.773438 C 17.425781 0.773438 20.964844 4.359375 20.964844 8.769531 L 20.964844 13.414062 L 18.050781 13.414062 L 18.050781 8.808594 C 18.050781 6.03125 15.816406 3.765625 13.074219 3.765625 C 10.328125 3.765625 8.09375 6.03125 8.09375 8.808594 L 8.09375 13.414062 L 5.183594 13.414062 Z M 17.289062 13.414062 L 8.859375 13.414062 L 8.859375 8.808594 C 8.859375 6.453125 10.75 4.539062 13.074219 4.539062 C 15.398438 4.539062 17.289062 6.453125 17.289062 8.808594 Z M 25.15625 30.507812 C 25.15625 32.289062 23.722656 33.742188 21.964844 33.742188 L 4.179688 33.742188 C 2.421875 33.742188 0.988281 32.289062 0.988281 30.507812 L 0.988281 17.421875 C 0.988281 15.640625 2.421875 14.1875 4.179688 14.1875 L 21.964844 14.1875 C 23.722656 14.1875 25.15625 15.640625 25.15625 17.421875 Z M 25.15625 30.507812 " fill-opacity="1" fill-rule="nonzero"/></g><path fill="#000000" d="M 15.335938 24.894531 C 16.027344 24.105469 16.265625 23.015625 15.976562 21.976562 C 15.679688 20.910156 14.859375 20.125 13.78125 19.875 C 12.859375 19.664062 11.914062 19.878906 11.1875 20.460938 C 10.460938 21.046875 10.046875 21.921875 10.046875 22.859375 C 10.046875 23.765625 10.4375 24.621094 11.125 25.207031 C 11.261719 25.328125 11.3125 25.5 11.25 25.648438 L 10.488281 27.476562 C 10.359375 27.785156 10.390625 28.140625 10.574219 28.421875 C 10.757812 28.703125 11.066406 28.867188 11.398438 28.867188 L 14.75 28.867188 C 15.082031 28.867188 15.390625 28.703125 15.570312 28.421875 C 15.757812 28.140625 15.789062 27.785156 15.660156 27.476562 L 14.902344 25.667969 C 14.835938 25.507812 14.886719 25.320312 15.035156 25.195312 C 15.140625 25.101562 15.242188 25 15.335938 24.894531 Z M 14.199219 25.96875 L 14.957031 27.777344 C 14.996094 27.878906 14.957031 27.960938 14.9375 27.992188 C 14.917969 28.023438 14.859375 28.09375 14.75 28.09375 L 11.398438 28.09375 C 11.289062 28.09375 11.230469 28.023438 11.210938 27.992188 C 11.191406 27.960938 11.148438 27.878906 11.191406 27.777344 L 11.953125 25.949219 C 12.148438 25.492188 12.011719 24.953125 11.617188 24.617188 C 11.105469 24.175781 10.8125 23.539062 10.8125 22.859375 C 10.8125 22.15625 11.121094 21.503906 11.664062 21.066406 C 12.070312 20.738281 12.566406 20.566406 13.078125 20.566406 C 13.253906 20.566406 13.433594 20.589844 13.613281 20.628906 C 14.414062 20.816406 15.023438 21.398438 15.242188 22.1875 C 15.464844 22.984375 15.289062 23.785156 14.765625 24.382812 C 14.695312 24.460938 14.621094 24.535156 14.542969 24.605469 C 14.140625 24.949219 14.003906 25.5 14.199219 25.96875 Z M 14.199219 25.96875 " fill-opacity="1" fill-rule="nonzero"/><g clip-path="url(#eb24899ecf)"><path fill="#000000" d="M 21.964844 13.414062 L 21.726562 13.414062 L 21.726562 8.769531 C 21.726562 3.933594 17.84375 0 13.074219 0 C 8.300781 0 4.417969 3.933594 4.417969 8.769531 L 4.417969 13.414062 L 4.179688 13.414062 C 2 13.414062 0.226562 15.210938 0.226562 17.421875 L 0.226562 30.507812 C 0.226562 32.71875 2 34.515625 4.179688 34.515625 L 21.964844 34.515625 C 24.144531 34.515625 25.917969 32.71875 25.917969 30.507812 L 25.917969 17.421875 C 25.921875 15.210938 24.144531 13.414062 21.964844 13.414062 Z M 5.183594 8.769531 C 5.183594 4.359375 8.722656 0.773438 13.074219 0.773438 C 17.425781 0.773438 20.964844 4.359375 20.964844 8.769531 L 20.964844 13.414062 L 18.050781 13.414062 L 18.050781 8.808594 C 18.050781 6.03125 15.816406 3.765625 13.074219 3.765625 C 10.328125 3.765625 8.09375 6.03125 8.09375 8.808594 L 8.09375 13.414062 L 5.183594 13.414062 Z M 17.289062 13.414062 L 8.859375 13.414062 L 8.859375 8.808594 C 8.859375 6.453125 10.75 4.539062 13.074219 4.539062 C 15.398438 4.539062 17.289062 6.453125 17.289062 8.808594 Z M 25.15625 30.507812 C 25.15625 32.289062 23.722656 33.742188 21.964844 33.742188 L 4.179688 33.742188 C 2.421875 33.742188 0.988281 32.289062 0.988281 30.507812 L 0.988281 17.421875 C 0.988281 15.640625 2.421875 14.1875 4.179688 14.1875 L 21.964844 14.1875 C 23.722656 14.1875 25.15625 15.640625 25.15625 17.421875 Z M 25.15625 30.507812 " fill-opacity="1" fill-rule="nonzero"/></g><path fill="#000000" d="M 15.335938 24.894531 C 16.027344 24.105469 16.265625 23.015625 15.976562 21.976562 C 15.679688 20.910156 14.859375 20.125 13.78125 19.875 C 12.859375 19.664062 11.914062 19.878906 11.1875 20.460938 C 10.460938 21.046875 10.046875 21.921875 10.046875 22.859375 C 10.046875 23.765625 10.4375 24.621094 11.125 25.207031 C 11.261719 25.328125 11.3125 25.5 11.25 25.648438 L 10.488281 27.476562 C 10.359375 27.785156 10.390625 28.140625 10.574219 28.421875 C 10.757812 28.703125 11.066406 28.867188 11.398438 28.867188 L 14.75 28.867188 C 15.082031 28.867188 15.390625 28.703125 15.570312 28.421875 C 15.757812 28.140625 15.789062 27.785156 15.660156 27.476562 L 14.902344 25.667969 C 14.835938 25.507812 14.886719 25.320312 15.035156 25.195312 C 15.140625 25.101562 15.242188 25 15.335938 24.894531 Z M 14.199219 25.96875 L 14.957031 27.777344 C 14.996094 27.878906 14.957031 27.960938 14.9375 27.992188 C 14.917969 28.023438 14.859375 28.09375 14.75 28.09375 L 11.398438 28.09375 C 11.289062 28.09375 11.230469 28.023438 11.210938 27.992188 C 11.191406 27.960938 11.148438 27.878906 11.191406 27.777344 L 11.953125 25.949219 C 12.148438 25.492188 12.011719 24.953125 11.617188 24.617188 C 11.105469 24.175781 10.8125 23.539062 10.8125 22.859375 C 10.8125 22.15625 11.121094 21.503906 11.664062 21.066406 C 12.070312 20.738281 12.566406 20.566406 13.078125 20.566406 C 13.253906 20.566406 13.433594 20.589844 13.613281 20.628906 C 14.414062 20.816406 15.023438 21.398438 15.242188 22.1875 C 15.464844 22.984375 15.289062 23.785156 14.765625 24.382812 C 14.695312 24.460938 14.621094 24.535156 14.542969 24.605469 C 14.140625 24.949219 14.003906 25.5 14.199219 25.96875 Z M 14.199219 25.96875 " fill-opacity="1" fill-rule="nonzero"/><g clip-path="url(#dc667b10de)"><path fill="#000000" d="M 21.964844 13.414062 L 21.726562 13.414062 L 21.726562 8.769531 C 21.726562 3.933594 17.84375 0 13.074219 0 C 8.300781 0 4.417969 3.933594 4.417969 8.769531 L 4.417969 13.414062 L 4.179688 13.414062 C 2 13.414062 0.226562 15.210938 0.226562 17.421875 L 0.226562 30.507812 C 0.226562 32.71875 2 34.515625 4.179688 34.515625 L 21.964844 34.515625 C 24.144531 34.515625 25.917969 32.71875 25.917969 30.507812 L 25.917969 17.421875 C 25.921875 15.210938 24.144531 13.414062 21.964844 13.414062 Z M 5.183594 8.769531 C 5.183594 4.359375 8.722656 0.773438 13.074219 0.773438 C 17.425781 0.773438 20.964844 4.359375 20.964844 8.769531 L 20.964844 13.414062 L 18.050781 13.414062 L 18.050781 8.808594 C 18.050781 6.03125 15.816406 3.765625 13.074219 3.765625 C 10.328125 3.765625 8.09375 6.03125 8.09375 8.808594 L 8.09375 13.414062 L 5.183594 13.414062 Z M 17.289062 13.414062 L 8.859375 13.414062 L 8.859375 8.808594 C 8.859375 6.453125 10.75 4.539062 13.074219 4.539062 C 15.398438 4.539062 17.289062 6.453125 17.289062 8.808594 Z M 25.15625 30.507812 C 25.15625 32.289062 23.722656 33.742188 21.964844 33.742188 L 4.179688 33.742188 C 2.421875 33.742188 0.988281 32.289062 0.988281 30.507812 L 0.988281 17.421875 C 0.988281 15.640625 2.421875 14.1875 4.179688 14.1875 L 21.964844 14.1875 C 23.722656 14.1875 25.15625 15.640625 25.15625 17.421875 Z M 25.15625 30.507812 " fill-opacity="1" fill-rule="nonzero"/></g><path fill="#000000" d="M 15.335938 24.894531 C 16.027344 24.105469 16.265625 23.015625 15.976562 21.976562 C 15.679688 20.910156 14.859375 20.125 13.78125 19.875 C 12.859375 19.664062 11.914062 19.878906 11.1875 20.460938 C 10.460938 21.046875 10.046875 21.921875 10.046875 22.859375 C 10.046875 23.765625 10.4375 24.621094 11.125 25.207031 C 11.261719 25.328125 11.3125 25.5 11.25 25.648438 L 10.488281 27.476562 C 10.359375 27.785156 10.390625 28.140625 10.574219 28.421875 C 10.757812 28.703125 11.066406 28.867188 11.398438 28.867188 L 14.75 28.867188 C 15.082031 28.867188 15.390625 28.703125 15.570312 28.421875 C 15.757812 28.140625 15.789062 27.785156 15.660156 27.476562 L 14.902344 25.667969 C 14.835938 25.507812 14.886719 25.320312 15.035156 25.195312 C 15.140625 25.101562 15.242188 25 15.335938 24.894531 Z M 14.199219 25.96875 L 14.957031 27.777344 C 14.996094 27.878906 14.957031 27.960938 14.9375 27.992188 C 14.917969 28.023438 14.859375 28.09375 14.75 28.09375 L 11.398438 28.09375 C 11.289062 28.09375 11.230469 28.023438 11.210938 27.992188 C 11.191406 27.960938 11.148438 27.878906 11.191406 27.777344 L 11.953125 25.949219 C 12.148438 25.492188 12.011719 24.953125 11.617188 24.617188 C 11.105469 24.175781 10.8125 23.539062 10.8125 22.859375 C 10.8125 22.15625 11.121094 21.503906 11.664062 21.066406 C 12.070312 20.738281 12.566406 20.566406 13.078125 20.566406 C 13.253906 20.566406 13.433594 20.589844 13.613281 20.628906 C 14.414062 20.816406 15.023438 21.398438 15.242188 22.1875 C 15.464844 22.984375 15.289062 23.785156 14.765625 24.382812 C 14.695312 24.460938 14.621094 24.535156 14.542969 24.605469 C 14.140625 24.949219 14.003906 25.5 14.199219 25.96875 Z M 14.199219 25.96875 " fill-opacity="1" fill-rule="nonzero"/><g clip-path="url(#6d7c40c2f8)"><path fill="#000000" d="M 21.964844 13.414062 L 21.726562 13.414062 L 21.726562 8.769531 C 21.726562 3.933594 17.84375 0 13.074219 0 C 8.300781 0 4.417969 3.933594 4.417969 8.769531 L 4.417969 13.414062 L 4.179688 13.414062 C 2 13.414062 0.226562 15.210938 0.226562 17.421875 L 0.226562 30.507812 C 0.226562 32.71875 2 34.515625 4.179688 34.515625 L 21.964844 34.515625 C 24.144531 34.515625 25.917969 32.71875 25.917969 30.507812 L 25.917969 17.421875 C 25.921875 15.210938 24.144531 13.414062 21.964844 13.414062 Z M 5.183594 8.769531 C 5.183594 4.359375 8.722656 0.773438 13.074219 0.773438 C 17.425781 0.773438 20.964844 4.359375 20.964844 8.769531 L 20.964844 13.414062 L 18.050781 13.414062 L 18.050781 8.808594 C 18.050781 6.03125 15.816406 3.765625 13.074219 3.765625 C 10.328125 3.765625 8.09375 6.03125 8.09375 8.808594 L 8.09375 13.414062 L 5.183594 13.414062 Z M 17.289062 13.414062 L 8.859375 13.414062 L 8.859375 8.808594 C 8.859375 6.453125 10.75 4.539062 13.074219 4.539062 C 15.398438 4.539062 17.289062 6.453125 17.289062 8.808594 Z M 25.15625 30.507812 C 25.15625 32.289062 23.722656 33.742188 21.964844 33.742188 L 4.179688 33.742188 C 2.421875 33.742188 0.988281 32.289062 0.988281 30.507812 L 0.988281 17.421875 C 0.988281 15.640625 2.421875 14.1875 4.179688 14.1875 L 21.964844 14.1875 C 23.722656 14.1875 25.15625 15.640625 25.15625 17.421875 Z M 25.15625 30.507812 " fill-opacity="1" fill-rule="nonzero"/></g><path fill="#000000" d="M 15.335938 24.894531 C 16.027344 24.105469 16.265625 23.015625 15.976562 21.976562 C 15.679688 20.910156 14.859375 20.125 13.78125 19.875 C 12.859375 19.664062 11.914062 19.878906 11.1875 20.460938 C 10.460938 21.046875 10.046875 21.921875 10.046875 22.859375 C 10.046875 23.765625 10.4375 24.621094 11.125 25.207031 C 11.261719 25.328125 11.3125 25.5 11.25 25.648438 L 10.488281 27.476562 C 10.359375 27.785156 10.390625 28.140625 10.574219 28.421875 C 10.757812 28.703125 11.066406 28.867188 11.398438 28.867188 L 14.75 28.867188 C 15.082031 28.867188 15.390625 28.703125 15.570312 28.421875 C 15.757812 28.140625 15.789062 27.785156 15.660156 27.476562 L 14.902344 25.667969 C 14.835938 25.507812 14.886719 25.320312 15.035156 25.195312 C 15.140625 25.101562 15.242188 25 15.335938 24.894531 Z M 14.199219 25.96875 L 14.957031 27.777344 C 14.996094 27.878906 14.957031 27.960938 14.9375 27.992188 C 14.917969 28.023438 14.859375 28.09375 14.75 28.09375 L 11.398438 28.09375 C 11.289062 28.09375 11.230469 28.023438 11.210938 27.992188 C 11.191406 27.960938 11.148438 27.878906 11.191406 27.777344 L 11.953125 25.949219 C 12.148438 25.492188 12.011719 24.953125 11.617188 24.617188 C 11.105469 24.175781 10.8125 23.539062 10.8125 22.859375 C 10.8125 22.15625 11.121094 21.503906 11.664062 21.066406 C 12.070312 20.738281 12.566406 20.566406 13.078125 20.566406 C 13.253906 20.566406 13.433594 20.589844 13.613281 20.628906 C 14.414062 20.816406 15.023438 21.398438 15.242188 22.1875 C 15.464844 22.984375 15.289062 23.785156 14.765625 24.382812 C 14.695312 24.460938 14.621094 24.535156 14.542969 24.605469 C 14.140625 24.949219 14.003906 25.5 14.199219 25.96875 Z M 14.199219 25.96875 " fill-opacity="1" fill-rule="nonzero"/><g clip-path="url(#3a47b1f60b)"><path fill="#000000" d="M 21.964844 13.414062 L 21.726562 13.414062 L 21.726562 8.769531 C 21.726562 3.933594 17.84375 0 13.074219 0 C 8.300781 0 4.417969 3.933594 4.417969 8.769531 L 4.417969 13.414062 L 4.179688 13.414062 C 2 13.414062 0.226562 15.210938 0.226562 17.421875 L 0.226562 30.507812 C 0.226562 32.71875 2 34.515625 4.179688 34.515625 L 21.964844 34.515625 C 24.144531 34.515625 25.917969 32.71875 25.917969 30.507812 L 25.917969 17.421875 C 25.921875 15.210938 24.144531 13.414062 21.964844 13.414062 Z M 5.183594 8.769531 C 5.183594 4.359375 8.722656 0.773438 13.074219 0.773438 C 17.425781 0.773438 20.964844 4.359375 20.964844 8.769531 L 20.964844 13.414062 L 18.050781 13.414062 L 18.050781 8.808594 C 18.050781 6.03125 15.816406 3.765625 13.074219 3.765625 C 10.328125 3.765625 8.09375 6.03125 8.09375 8.808594 L 8.09375 13.414062 L 5.183594 13.414062 Z M 17.289062 13.414062 L 8.859375 13.414062 L 8.859375 8.808594 C 8.859375 6.453125 10.75 4.539062 13.074219 4.539062 C 15.398438 4.539062 17.289062 6.453125 17.289062 8.808594 Z M 25.15625 30.507812 C 25.15625 32.289062 23.722656 33.742188 21.964844 33.742188 L 4.179688 33.742188 C 2.421875 33.742188 0.988281 32.289062 0.988281 30.507812 L 0.988281 17.421875 C 0.988281 15.640625 2.421875 14.1875 4.179688 14.1875 L 21.964844 14.1875 C 23.722656 14.1875 25.15625 15.640625 25.15625 17.421875 Z M 25.15625 30.507812 " fill-opacity="1" fill-rule="nonzero"/></g><path fill="#000000" d="M 15.335938 24.894531 C 16.027344 24.105469 16.265625 23.015625 15.976562 21.976562 C 15.679688 20.910156 14.859375 20.125 13.78125 19.875 C 12.859375 19.664062 11.914062 19.878906 11.1875 20.460938 C 10.460938 21.046875 10.046875 21.921875 10.046875 22.859375 C 10.046875 23.765625 10.4375 24.621094 11.125 25.207031 C 11.261719 25.328125 11.3125 25.5 11.25 25.648438 L 10.488281 27.476562 C 10.359375 27.785156 10.390625 28.140625 10.574219 28.421875 C 10.757812 28.703125 11.066406 28.867188 11.398438 28.867188 L 14.75 28.867188 C 15.082031 28.867188 15.390625 28.703125 15.570312 28.421875 C 15.757812 28.140625 15.789062 27.785156 15.660156 27.476562 L 14.902344 25.667969 C 14.835938 25.507812 14.886719 25.320312 15.035156 25.195312 C 15.140625 25.101562 15.242188 25 15.335938 24.894531 Z M 14.199219 25.96875 L 14.957031 27.777344 C 14.996094 27.878906 14.957031 27.960938 14.9375 27.992188 C 14.917969 28.023438 14.859375 28.09375 14.75 28.09375 L 11.398438 28.09375 C 11.289062 28.09375 11.230469 28.023438 11.210938 27.992188 C 11.191406 27.960938 11.148438 27.878906 11.191406 27.777344 L 11.953125 25.949219 C 12.148438 25.492188 12.011719 24.953125 11.617188 24.617188 C 11.105469 24.175781 10.8125 23.539062 10.8125 22.859375 C 10.8125 22.15625 11.121094 21.503906 11.664062 21.066406 C 12.070312 20.738281 12.566406 20.566406 13.078125 20.566406 C 13.253906 20.566406 13.433594 20.589844 13.613281 20.628906 C 14.414062 20.816406 15.023438 21.398438 15.242188 22.1875 C 15.464844 22.984375 15.289062 23.785156 14.765625 24.382812 C 14.695312 24.460938 14.621094 24.535156 14.542969 24.605469 C 14.140625 24.949219 14.003906 25.5 14.199219 25.96875 Z M 14.199219 25.96875 " fill-opacity="1" fill-rule="nonzero"/><g clip-path="url(#61dd4b1af5)"><path fill="#000000" d="M 21.964844 13.414062 L 21.726562 13.414062 L 21.726562 8.769531 C 21.726562 3.933594 17.84375 0 13.074219 0 C 8.300781 0 4.417969 3.933594 4.417969 8.769531 L 4.417969 13.414062 L 4.179688 13.414062 C 2 13.414062 0.226562 15.210938 0.226562 17.421875 L 0.226562 30.507812 C 0.226562 32.71875 2 34.515625 4.179688 34.515625 L 21.964844 34.515625 C 24.144531 34.515625 25.917969 32.71875 25.917969 30.507812 L 25.917969 17.421875 C 25.921875 15.210938 24.144531 13.414062 21.964844 13.414062 Z M 5.183594 8.769531 C 5.183594 4.359375 8.722656 0.773438 13.074219 0.773438 C 17.425781 0.773438 20.964844 4.359375 20.964844 8.769531 L 20.964844 13.414062 L 18.050781 13.414062 L 18.050781 8.808594 C 18.050781 6.03125 15.816406 3.765625 13.074219 3.765625 C 10.328125 3.765625 8.09375 6.03125 8.09375 8.808594 L 8.09375 13.414062 L 5.183594 13.414062 Z M 17.289062 13.414062 L 8.859375 13.414062 L 8.859375 8.808594 C 8.859375 6.453125 10.75 4.539062 13.074219 4.539062 C 15.398438 4.539062 17.289062 6.453125 17.289062 8.808594 Z M 25.15625 30.507812 C 25.15625 32.289062 23.722656 33.742188 21.964844 33.742188 L 4.179688 33.742188 C 2.421875 33.742188 0.988281 32.289062 0.988281 30.507812 L 0.988281 17.421875 C 0.988281 15.640625 2.421875 14.1875 4.179688 14.1875 L 21.964844 14.1875 C 23.722656 14.1875 25.15625 15.640625 25.15625 17.421875 Z M 25.15625 30.507812 " fill-opacity="1" fill-rule="nonzero"/></g><path fill="#000000" d="M 15.335938 24.894531 C 16.027344 24.105469 16.265625 23.015625 15.976562 21.976562 C 15.679688 20.910156 14.859375 20.125 13.78125 19.875 C 12.859375 19.664062 11.914062 19.878906 11.1875 20.460938 C 10.460938 21.046875 10.046875 21.921875 10.046875 22.859375 C 10.046875 23.765625 10.4375 24.621094 11.125 25.207031 C 11.261719 25.328125 11.3125 25.5 11.25 25.648438 L 10.488281 27.476562 C 10.359375 27.785156 10.390625 28.140625 10.574219 28.421875 C 10.757812 28.703125 11.066406 28.867188 11.398438 28.867188 L 14.75 28.867188 C 15.082031 28.867188 15.390625 28.703125 15.570312 28.421875 C 15.757812 28.140625 15.789062 27.785156 15.660156 27.476562 L 14.902344 25.667969 C 14.835938 25.507812 14.886719 25.320312 15.035156 25.195312 C 15.140625 25.101562 15.242188 25 15.335938 24.894531 Z M 14.199219 25.96875 L 14.957031 27.777344 C 14.996094 27.878906 14.957031 27.960938 14.9375 27.992188 C 14.917969 28.023438 14.859375 28.09375 14.75 28.09375 L 11.398438 28.09375 C 11.289062 28.09375 11.230469 28.023438 11.210938 27.992188 C 11.191406 27.960938 11.148438 27.878906 11.191406 27.777344 L 11.953125 25.949219 C 12.148438 25.492188 12.011719 24.953125 11.617188 24.617188 C 11.105469 24.175781 10.8125 23.539062 10.8125 22.859375 C 10.8125 22.15625 11.121094 21.503906 11.664062 21.066406 C 12.070312 20.738281 12.566406 20.566406 13.078125 20.566406 C 13.253906 20.566406 13.433594 20.589844 13.613281 20.628906 C 14.414062 20.816406 15.023438 21.398438 15.242188 22.1875 C 15.464844 22.984375 15.289062 23.785156 14.765625 24.382812 C 14.695312 24.460938 14.621094 24.535156 14.542969 24.605469 C 14.140625 24.949219 14.003906 25.5 14.199219 25.96875 Z M 14.199219 25.96875 " fill-opacity="1" fill-rule="nonzero"/><g clip-path="url(#0739686086)"><path fill="#000000" d="M 21.964844 13.414062 L 21.726562 13.414062 L 21.726562 8.769531 C 21.726562 3.933594 17.84375 0 13.074219 0 C 8.300781 0 4.417969 3.933594 4.417969 8.769531 L 4.417969 13.414062 L 4.179688 13.414062 C 2 13.414062 0.226562 15.210938 0.226562 17.421875 L 0.226562 30.507812 C 0.226562 32.71875 2 34.515625 4.179688 34.515625 L 21.964844 34.515625 C 24.144531 34.515625 25.917969 32.71875 25.917969 30.507812 L 25.917969 17.421875 C 25.921875 15.210938 24.144531 13.414062 21.964844 13.414062 Z M 5.183594 8.769531 C 5.183594 4.359375 8.722656 0.773438 13.074219 0.773438 C 17.425781 0.773438 20.964844 4.359375 20.964844 8.769531 L 20.964844 13.414062 L 18.050781 13.414062 L 18.050781 8.808594 C 18.050781 6.03125 15.816406 3.765625 13.074219 3.765625 C 10.328125 3.765625 8.09375 6.03125 8.09375 8.808594 L 8.09375 13.414062 L 5.183594 13.414062 Z M 17.289062 13.414062 L 8.859375 13.414062 L 8.859375 8.808594 C 8.859375 6.453125 10.75 4.539062 13.074219 4.539062 C 15.398438 4.539062 17.289062 6.453125 17.289062 8.808594 Z M 25.15625 30.507812 C 25.15625 32.289062 23.722656 33.742188 21.964844 33.742188 L 4.179688 33.742188 C 2.421875 33.742188 0.988281 32.289062 0.988281 30.507812 L 0.988281 17.421875 C 0.988281 15.640625 2.421875 14.1875 4.179688 14.1875 L 21.964844 14.1875 C 23.722656 14.1875 25.15625 15.640625 25.15625 17.421875 Z M 25.15625 30.507812 " fill-opacity="1" fill-rule="nonzero"/></g><path fill="#000000" d="M 15.335938 24.894531 C 16.027344 24.105469 16.265625 23.015625 15.976562 21.976562 C 15.679688 20.910156 14.859375 20.125 13.78125 19.875 C 12.859375 19.664062 11.914062 19.878906 11.1875 20.460938 C 10.460938 21.046875 10.046875 21.921875 10.046875 22.859375 C 10.046875 23.765625 10.4375 24.621094 11.125 25.207031 C 11.261719 25.328125 11.3125 25.5 11.25 25.648438 L 10.488281 27.476562 C 10.359375 27.785156 10.390625 28.140625 10.574219 28.421875 C 10.757812 28.703125 11.066406 28.867188 11.398438 28.867188 L 14.75 28.867188 C 15.082031 28.867188 15.390625 28.703125 15.570312 28.421875 C 15.757812 28.140625 15.789062 27.785156 15.660156 27.476562 L 14.902344 25.667969 C 14.835938 25.507812 14.886719 25.320312 15.035156 25.195312 C 15.140625 25.101562 15.242188 25 15.335938 24.894531 Z M 14.199219 25.96875 L 14.957031 27.777344 C 14.996094 27.878906 14.957031 27.960938 14.9375 27.992188 C 14.917969 28.023438 14.859375 28.09375 14.75 28.09375 L 11.398438 28.09375 C 11.289062 28.09375 11.230469 28.023438 11.210938 27.992188 C 11.191406 27.960938 11.148438 27.878906 11.191406 27.777344 L 11.953125 25.949219 C 12.148438 25.492188 12.011719 24.953125 11.617188 24.617188 C 11.105469 24.175781 10.8125 23.539062 10.8125 22.859375 C 10.8125 22.15625 11.121094 21.503906 11.664062 21.066406 C 12.070312 20.738281 12.566406 20.566406 13.078125 20.566406 C 13.253906 20.566406 13.433594 20.589844 13.613281 20.628906 C 14.414062 20.816406 15.023438 21.398438 15.242188 22.1875 C 15.464844 22.984375 15.289062 23.785156 14.765625 24.382812 C 14.695312 24.460938 14.621094 24.535156 14.542969 24.605469 C 14.140625 24.949219 14.003906 25.5 14.199219 25.96875 Z M 14.199219 25.96875 " fill-opacity="1" fill-rule="nonzero"/><g clip-path="url(#08fab2d643)"><path fill="#000000" d="M 21.964844 13.414062 L 21.726562 13.414062 L 21.726562 8.769531 C 21.726562 3.933594 17.84375 0 13.074219 0 C 8.300781 0 4.417969 3.933594 4.417969 8.769531 L 4.417969 13.414062 L 4.179688 13.414062 C 2 13.414062 0.226562 15.210938 0.226562 17.421875 L 0.226562 30.507812 C 0.226562 32.71875 2 34.515625 4.179688 34.515625 L 21.964844 34.515625 C 24.144531 34.515625 25.917969 32.71875 25.917969 30.507812 L 25.917969 17.421875 C 25.921875 15.210938 24.144531 13.414062 21.964844 13.414062 Z M 5.183594 8.769531 C 5.183594 4.359375 8.722656 0.773438 13.074219 0.773438 C 17.425781 0.773438 20.964844 4.359375 20.964844 8.769531 L 20.964844 13.414062 L 18.050781 13.414062 L 18.050781 8.808594 C 18.050781 6.03125 15.816406 3.765625 13.074219 3.765625 C 10.328125 3.765625 8.09375 6.03125 8.09375 8.808594 L 8.09375 13.414062 L 5.183594 13.414062 Z M 17.289062 13.414062 L 8.859375 13.414062 L 8.859375 8.808594 C 8.859375 6.453125 10.75 4.539062 13.074219 4.539062 C 15.398438 4.539062 17.289062 6.453125 17.289062 8.808594 Z M 25.15625 30.507812 C 25.15625 32.289062 23.722656 33.742188 21.964844 33.742188 L 4.179688 33.742188 C 2.421875 33.742188 0.988281 32.289062 0.988281 30.507812 L 0.988281 17.421875 C 0.988281 15.640625 2.421875 14.1875 4.179688 14.1875 L 21.964844 14.1875 C 23.722656 14.1875 25.15625 15.640625 25.15625 17.421875 Z M 25.15625 30.507812 " fill-opacity="1" fill-rule="nonzero"/></g><path fill="#000000" d="M 15.335938 24.894531 C 16.027344 24.105469 16.265625 23.015625 15.976562 21.976562 C 15.679688 20.910156 14.859375 20.125 13.78125 19.875 C 12.859375 19.664062 11.914062 19.878906 11.1875 20.460938 C 10.460938 21.046875 10.046875 21.921875 10.046875 22.859375 C 10.046875 23.765625 10.4375 24.621094 11.125 25.207031 C 11.261719 25.328125 11.3125 25.5 11.25 25.648438 L 10.488281 27.476562 C 10.359375 27.785156 10.390625 28.140625 10.574219 28.421875 C 10.757812 28.703125 11.066406 28.867188 11.398438 28.867188 L 14.75 28.867188 C 15.082031 28.867188 15.390625 28.703125 15.570312 28.421875 C 15.757812 28.140625 15.789062 27.785156 15.660156 27.476562 L 14.902344 25.667969 C 14.835938 25.507812 14.886719 25.320312 15.035156 25.195312 C 15.140625 25.101562 15.242188 25 15.335938 24.894531 Z M 14.199219 25.96875 L 14.957031 27.777344 C 14.996094 27.878906 14.957031 27.960938 14.9375 27.992188 C 14.917969 28.023438 14.859375 28.09375 14.75 28.09375 L 11.398438 28.09375 C 11.289062 28.09375 11.230469 28.023438 11.210938 27.992188 C 11.191406 27.960938 11.148438 27.878906 11.191406 27.777344 L 11.953125 25.949219 C 12.148438 25.492188 12.011719 24.953125 11.617188 24.617188 C 11.105469 24.175781 10.8125 23.539062 10.8125 22.859375 C 10.8125 22.15625 11.121094 21.503906 11.664062 21.066406 C 12.070312 20.738281 12.566406 20.566406 13.078125 20.566406 C 13.253906 20.566406 13.433594 20.589844 13.613281 20.628906 C 14.414062 20.816406 15.023438 21.398438 15.242188 22.1875 C 15.464844 22.984375 15.289062 23.785156 14.765625 24.382812 C 14.695312 24.460938 14.621094 24.535156 14.542969 24.605469 C 14.140625 24.949219 14.003906 25.5 14.199219 25.96875 Z M 14.199219 25.96875 " fill-opacity="1" fill-rule="nonzero"/></svg>