<svg xmlns="http://www.w3.org/2000/svg" xmlns:xlink="http://www.w3.org/1999/xlink" width="40" zoomAndPan="magnify" viewBox="0 0 30 36.000001" height="48" preserveAspectRatio="xMidYMid meet" version="1.0"><defs><clipPath id="bd9b81b342"><path d="M 0.40625 0 L 29.59375 0 L 29.59375 35.027344 L 0.40625 35.027344 Z M 0.40625 0 " clip-rule="nonzero"/></clipPath></defs><g clip-path="url(#bd9b81b342)"><path fill="#000000" d="M 15 0 C 6.820312 0 0.414062 2.886719 0.414062 6.566406 L 0.414062 28.460938 C 0.414062 32.140625 6.820312 35.027344 15 35.027344 C 23.179688 35.027344 29.585938 32.140625 29.585938 28.460938 L 29.585938 6.566406 C 29.585938 2.886719 23.179688 0 15 0 Z M 28.128906 21.164062 C 28.128906 23.578125 22.738281 26.269531 15 26.269531 C 7.261719 26.269531 1.871094 23.578125 1.871094 21.164062 L 1.871094 16.757812 C 4.210938 18.949219 9.144531 20.433594 15 20.433594 C 20.855469 20.433594 25.789062 18.949219 28.128906 16.757812 Z M 28.128906 13.863281 C 28.128906 16.28125 22.738281 18.972656 15 18.972656 C 7.261719 18.972656 1.871094 16.28125 1.871094 13.863281 L 1.871094 9.460938 C 4.210938 11.652344 9.144531 13.136719 15 13.136719 C 20.855469 13.136719 25.789062 11.652344 28.128906 9.460938 Z M 15 1.460938 C 22.738281 1.460938 28.128906 4.152344 28.128906 6.566406 C 28.128906 8.984375 22.738281 11.675781 15 11.675781 C 7.261719 11.675781 1.871094 8.984375 1.871094 6.566406 C 1.871094 4.152344 7.261719 1.460938 15 1.460938 Z M 15 33.566406 C 7.261719 33.566406 1.871094 30.875 1.871094 28.460938 L 1.871094 24.054688 C 4.210938 26.246094 9.144531 27.730469 15 27.730469 C 20.855469 27.730469 25.789062 26.246094 28.128906 24.054688 L 28.128906 28.460938 C 28.128906 30.875 22.738281 33.566406 15 33.566406 Z M 15 33.566406 " fill-opacity="1" fill-rule="nonzero"/><path fill="#000000" d="M 15 0 C 6.820312 0 0.414062 2.886719 0.414062 6.566406 L 0.414062 28.460938 C 0.414062 32.140625 6.820312 35.027344 15 35.027344 C 23.179688 35.027344 29.585938 32.140625 29.585938 28.460938 L 29.585938 6.566406 C 29.585938 2.886719 23.179688 0 15 0 Z M 28.128906 21.164062 C 28.128906 23.578125 22.738281 26.269531 15 26.269531 C 7.261719 26.269531 1.871094 23.578125 1.871094 21.164062 L 1.871094 16.757812 C 4.210938 18.949219 9.144531 20.433594 15 20.433594 C 20.855469 20.433594 25.789062 18.949219 28.128906 16.757812 Z M 28.128906 13.863281 C 28.128906 16.28125 22.738281 18.972656 15 18.972656 C 7.261719 18.972656 1.871094 16.28125 1.871094 13.863281 L 1.871094 9.460938 C 4.210938 11.652344 9.144531 13.136719 15 13.136719 C 20.855469 13.136719 25.789062 11.652344 28.128906 9.460938 Z M 15 1.460938 C 22.738281 1.460938 28.128906 4.152344 28.128906 6.566406 C 28.128906 8.984375 22.738281 11.675781 15 11.675781 C 7.261719 11.675781 1.871094 8.984375 1.871094 6.566406 C 1.871094 4.152344 7.261719 1.460938 15 1.460938 Z M 15 33.566406 C 7.261719 33.566406 1.871094 30.875 1.871094 28.460938 L 1.871094 24.054688 C 4.210938 26.246094 9.144531 27.730469 15 27.730469 C 20.855469 27.730469 25.789062 26.246094 28.128906 24.054688 L 28.128906 28.460938 C 28.128906 30.875 22.738281 33.566406 15 33.566406 Z M 15 33.566406 " fill-opacity="1" fill-rule="nonzero"/></g></svg>