<svg xmlns="http://www.w3.org/2000/svg" xmlns:xlink="http://www.w3.org/1999/xlink" width="47" zoomAndPan="magnify" viewBox="0 0 35.25 36.000001" height="48" preserveAspectRatio="xMidYMid meet" version="1.0"><defs><clipPath id="0a8fad3c96"><path d="M 0.113281 0 L 34.410156 0 L 34.410156 35.027344 L 0.113281 35.027344 Z M 0.113281 0 " clip-rule="nonzero"/></clipPath><clipPath id="e530400341"><path d="M 0.113281 0 L 34.410156 0 L 34.410156 35.027344 L 0.113281 35.027344 Z M 0.113281 0 " clip-rule="nonzero"/></clipPath></defs><path fill="#000000" d="M 18.699219 26.503906 C 19.242188 27.703125 20.4375 28.46875 21.796875 28.46875 C 23.699219 28.46875 25.21875 26.941406 25.21875 25.027344 C 25.21875 23.113281 23.699219 21.585938 21.796875 21.585938 C 21.796875 21.585938 21.742188 21.585938 21.742188 21.585938 C 20.4375 21.585938 19.242188 22.347656 18.699219 23.550781 C 18.484375 23.988281 18.375 24.480469 18.375 24.972656 C 18.375 25.191406 18.375 25.410156 18.429688 25.683594 C 18.535156 26.066406 18.589844 26.285156 18.699219 26.503906 Z M 19.460938 23.988281 C 19.894531 23.058594 20.820312 22.457031 21.796875 22.457031 C 23.210938 22.457031 24.402344 23.605469 24.402344 25.082031 C 24.402344 26.503906 23.261719 27.703125 21.796875 27.703125 C 20.765625 27.703125 19.839844 27.105469 19.460938 26.175781 C 19.40625 26.011719 19.296875 25.847656 19.296875 25.628906 C 19.242188 25.464844 19.242188 25.246094 19.242188 25.082031 C 19.1875 24.699219 19.296875 24.316406 19.460938 23.988281 Z M 19.460938 23.988281 " fill-opacity="1" fill-rule="nonzero"/><g clip-path="url(#0a8fad3c96)"><path fill="#000000" d="M 34.019531 10.054688 L 17.449219 0.0546875 C 17.339844 0 17.179688 0 17.015625 0.0546875 L 0.445312 10.054688 C 0.28125 10.164062 0.226562 10.328125 0.28125 10.492188 C 0.335938 10.65625 0.5 10.820312 0.664062 10.820312 L 2.890625 10.820312 L 2.890625 34.589844 C 2.890625 34.808594 3.054688 35.027344 3.324219 35.027344 L 31.25 35.027344 C 31.46875 35.027344 31.683594 34.863281 31.683594 34.589844 L 31.683594 10.765625 L 33.910156 10.765625 C 34.074219 10.765625 34.238281 10.65625 34.292969 10.4375 C 34.238281 10.328125 34.183594 10.109375 34.019531 10.054688 Z M 30.761719 34.152344 L 3.707031 34.152344 L 3.707031 10.765625 L 30.816406 10.765625 L 30.816406 34.152344 Z M 2.128906 9.945312 L 17.234375 0.875 L 32.335938 9.945312 Z M 2.128906 9.945312 " fill-opacity="1" fill-rule="nonzero"/></g><path fill="#000000" d="M 12.5625 32.511719 C 15.65625 32.511719 18.210938 31.640625 19.132812 30.328125 C 19.460938 30.492188 19.839844 30.65625 20.167969 30.765625 L 20.382812 31.859375 C 20.4375 32.078125 20.601562 32.183594 20.765625 32.183594 L 22.828125 32.183594 C 23.046875 32.183594 23.210938 32.023438 23.210938 31.859375 L 23.425781 30.765625 C 23.859375 30.65625 24.242188 30.492188 24.621094 30.273438 L 25.492188 30.929688 C 25.652344 31.039062 25.871094 31.039062 26.035156 30.875 L 27.5 29.398438 C 27.664062 29.234375 27.664062 29.015625 27.554688 28.851562 L 26.957031 27.976562 C 27.175781 27.59375 27.339844 27.210938 27.445312 26.777344 L 28.53125 26.558594 C 28.75 26.503906 28.859375 26.339844 28.859375 26.175781 L 28.859375 24.042969 C 28.859375 23.824219 28.695312 23.660156 28.53125 23.660156 L 27.445312 23.441406 C 27.339844 23.003906 27.175781 22.621094 26.957031 22.242188 L 27.554688 21.367188 C 27.664062 21.203125 27.664062 20.984375 27.5 20.820312 L 26.035156 19.34375 C 25.871094 19.179688 25.652344 19.179688 25.492188 19.289062 L 24.621094 19.890625 C 24.242188 19.671875 23.859375 19.507812 23.425781 19.398438 L 23.210938 18.304688 C 23.210938 18.140625 23.046875 18.03125 22.828125 18.03125 L 20.765625 18.03125 C 20.546875 18.03125 20.382812 18.195312 20.382812 18.359375 L 20.167969 19.453125 C 19.949219 19.507812 19.675781 19.617188 19.460938 19.726562 L 19.460938 15.738281 C 19.460938 13.933594 16.417969 12.511719 12.5625 12.511719 C 8.703125 12.511719 5.660156 13.933594 5.660156 15.792969 L 5.660156 29.289062 C 5.660156 31.039062 8.703125 32.511719 12.5625 32.511719 Z M 19.1875 20.765625 L 19.296875 20.710938 C 19.730469 20.492188 20.167969 20.273438 20.65625 20.164062 C 20.820312 20.109375 20.925781 20 20.980469 19.835938 L 21.144531 18.851562 L 22.503906 18.851562 L 22.664062 19.835938 C 22.71875 20 22.828125 20.109375 22.992188 20.164062 C 23.480469 20.273438 23.96875 20.492188 24.457031 20.765625 C 24.621094 20.875 24.785156 20.820312 24.894531 20.765625 L 25.707031 20.164062 L 26.6875 21.148438 L 26.089844 21.96875 C 25.980469 22.078125 25.980469 22.292969 26.089844 22.402344 C 26.359375 22.839844 26.578125 23.332031 26.6875 23.878906 C 26.742188 24.042969 26.847656 24.152344 27.011719 24.207031 L 27.988281 24.371094 L 27.988281 25.738281 L 27.011719 25.957031 C 26.847656 26.011719 26.742188 26.121094 26.6875 26.285156 C 26.578125 26.777344 26.359375 27.265625 26.089844 27.757812 C 25.980469 27.921875 26.035156 28.085938 26.089844 28.195312 L 26.6875 29.015625 L 25.707031 30 L 24.894531 29.398438 C 24.785156 29.289062 24.566406 29.289062 24.457031 29.398438 C 24.023438 29.671875 23.535156 29.890625 22.992188 30 C 22.828125 30.054688 22.71875 30.164062 22.664062 30.328125 L 22.503906 31.3125 L 21.144531 31.3125 L 20.980469 30.328125 C 20.925781 30.164062 20.820312 30.054688 20.65625 30 C 20.167969 29.890625 19.675781 29.671875 19.242188 29.398438 C 19.242188 29.398438 19.1875 29.398438 19.1875 29.34375 C 19.082031 29.289062 18.917969 29.289062 18.808594 29.398438 L 17.992188 30 L 17.015625 29.015625 L 17.613281 28.195312 C 17.722656 28.085938 17.722656 27.867188 17.613281 27.757812 C 17.449219 27.484375 17.339844 27.265625 17.234375 27.050781 C 17.125 26.777344 17.070312 26.558594 17.015625 26.339844 C 16.960938 26.175781 16.851562 26.066406 16.691406 26.011719 L 15.601562 25.792969 L 15.601562 24.425781 L 16.582031 24.261719 C 16.742188 24.207031 16.851562 24.097656 16.90625 23.933594 C 17.015625 23.496094 17.179688 23.058594 17.394531 22.675781 C 17.394531 22.675781 17.394531 22.621094 17.394531 22.621094 C 17.394531 22.566406 17.449219 22.566406 17.449219 22.511719 L 17.503906 22.457031 C 17.558594 22.292969 17.558594 22.132812 17.503906 22.023438 L 16.90625 21.203125 L 17.886719 20.21875 L 18.699219 20.820312 C 18.863281 20.875 19.027344 20.875 19.1875 20.765625 Z M 12.5625 13.277344 C 16.144531 13.277344 18.699219 14.589844 18.699219 15.738281 C 18.699219 16.886719 16.199219 18.195312 12.5625 18.195312 C 8.976562 18.195312 6.421875 16.886719 6.421875 15.738281 C 6.476562 14.589844 8.976562 13.277344 12.5625 13.277344 Z M 6.476562 17.269531 C 7.617188 18.304688 9.898438 18.960938 12.613281 18.960938 C 15.277344 18.960938 17.558594 18.25 18.753906 17.269531 L 18.753906 19.726562 L 18.15625 19.34375 C 17.992188 19.234375 17.777344 19.234375 17.613281 19.398438 L 16.144531 20.820312 C 15.984375 20.984375 15.984375 21.203125 16.09375 21.367188 L 16.636719 22.1875 C 15.496094 22.621094 14.082031 22.839844 12.5625 22.839844 C 8.976562 22.839844 6.421875 21.53125 6.421875 20.382812 L 6.421875 17.269531 Z M 6.476562 21.914062 C 7.617188 22.949219 9.898438 23.605469 12.613281 23.605469 C 13.972656 23.605469 15.277344 23.441406 16.363281 23.113281 C 16.308594 23.222656 16.308594 23.332031 16.253906 23.441406 L 15.167969 23.660156 C 14.953125 23.714844 14.84375 23.878906 14.84375 24.042969 L 14.84375 26.121094 C 14.84375 26.339844 15.003906 26.503906 15.167969 26.503906 L 16.253906 26.722656 C 16.253906 26.777344 16.308594 26.832031 16.308594 26.886719 C 15.222656 27.210938 13.972656 27.429688 12.613281 27.429688 C 9.03125 27.429688 6.476562 26.121094 6.476562 24.972656 Z M 6.476562 26.503906 C 7.617188 27.539062 9.898438 28.195312 12.613281 28.195312 C 14.082031 28.195312 15.441406 27.976562 16.636719 27.59375 C 16.691406 27.703125 16.691406 27.757812 16.742188 27.867188 L 16.144531 28.796875 C 16.039062 28.960938 16.039062 29.179688 16.199219 29.34375 L 17.503906 30.65625 C 16.417969 31.257812 14.734375 31.695312 12.613281 31.695312 C 9.03125 31.695312 6.476562 30.382812 6.476562 29.234375 Z M 6.476562 26.503906 " fill-opacity="1" fill-rule="nonzero"/><path fill="#000000" d="M 14.570312 6.339844 C 14.570312 7.8125 15.765625 9.015625 17.234375 9.015625 C 18.699219 9.015625 19.894531 7.8125 19.894531 6.339844 C 19.894531 4.863281 18.699219 3.660156 17.234375 3.660156 C 15.765625 3.660156 14.570312 4.863281 14.570312 6.339844 Z M 17.234375 4.480469 C 18.265625 4.480469 19.082031 5.300781 19.082031 6.339844 C 19.082031 7.378906 18.265625 8.195312 17.234375 8.195312 C 16.199219 8.195312 15.386719 7.378906 15.386719 6.339844 C 15.386719 5.300781 16.199219 4.480469 17.234375 4.480469 Z M 17.234375 4.480469 " fill-opacity="1" fill-rule="nonzero"/><path fill="#000000" d="M 18.699219 26.503906 C 19.242188 27.703125 20.4375 28.46875 21.796875 28.46875 C 23.699219 28.46875 25.21875 26.941406 25.21875 25.027344 C 25.21875 23.113281 23.699219 21.585938 21.796875 21.585938 C 21.796875 21.585938 21.742188 21.585938 21.742188 21.585938 C 20.4375 21.585938 19.242188 22.347656 18.699219 23.550781 C 18.484375 23.988281 18.375 24.480469 18.375 24.972656 C 18.375 25.191406 18.375 25.410156 18.429688 25.683594 C 18.535156 26.066406 18.589844 26.285156 18.699219 26.503906 Z M 19.460938 23.988281 C 19.894531 23.058594 20.820312 22.457031 21.796875 22.457031 C 23.210938 22.457031 24.402344 23.605469 24.402344 25.082031 C 24.402344 26.503906 23.261719 27.703125 21.796875 27.703125 C 20.765625 27.703125 19.839844 27.105469 19.460938 26.175781 C 19.40625 26.011719 19.296875 25.847656 19.296875 25.628906 C 19.242188 25.464844 19.242188 25.246094 19.242188 25.082031 C 19.1875 24.699219 19.296875 24.316406 19.460938 23.988281 Z M 19.460938 23.988281 " fill-opacity="1" fill-rule="nonzero"/><g clip-path="url(#e530400341)"><path fill="#000000" d="M 34.019531 10.054688 L 17.449219 0.0546875 C 17.339844 0 17.179688 0 17.015625 0.0546875 L 0.445312 10.054688 C 0.28125 10.164062 0.226562 10.328125 0.28125 10.492188 C 0.335938 10.65625 0.5 10.820312 0.664062 10.820312 L 2.890625 10.820312 L 2.890625 34.589844 C 2.890625 34.808594 3.054688 35.027344 3.324219 35.027344 L 31.25 35.027344 C 31.46875 35.027344 31.683594 34.863281 31.683594 34.589844 L 31.683594 10.765625 L 33.910156 10.765625 C 34.074219 10.765625 34.238281 10.65625 34.292969 10.4375 C 34.238281 10.328125 34.183594 10.109375 34.019531 10.054688 Z M 30.761719 34.152344 L 3.707031 34.152344 L 3.707031 10.765625 L 30.816406 10.765625 L 30.816406 34.152344 Z M 2.128906 9.945312 L 17.234375 0.875 L 32.335938 9.945312 Z M 2.128906 9.945312 " fill-opacity="1" fill-rule="nonzero"/></g><path fill="#000000" d="M 12.5625 32.511719 C 15.65625 32.511719 18.210938 31.640625 19.132812 30.328125 C 19.460938 30.492188 19.839844 30.65625 20.167969 30.765625 L 20.382812 31.859375 C 20.4375 32.078125 20.601562 32.183594 20.765625 32.183594 L 22.828125 32.183594 C 23.046875 32.183594 23.210938 32.023438 23.210938 31.859375 L 23.425781 30.765625 C 23.859375 30.65625 24.242188 30.492188 24.621094 30.273438 L 25.492188 30.929688 C 25.652344 31.039062 25.871094 31.039062 26.035156 30.875 L 27.5 29.398438 C 27.664062 29.234375 27.664062 29.015625 27.554688 28.851562 L 26.957031 27.976562 C 27.175781 27.59375 27.339844 27.210938 27.445312 26.777344 L 28.53125 26.558594 C 28.75 26.503906 28.859375 26.339844 28.859375 26.175781 L 28.859375 24.042969 C 28.859375 23.824219 28.695312 23.660156 28.53125 23.660156 L 27.445312 23.441406 C 27.339844 23.003906 27.175781 22.621094 26.957031 22.242188 L 27.554688 21.367188 C 27.664062 21.203125 27.664062 20.984375 27.5 20.820312 L 26.035156 19.34375 C 25.871094 19.179688 25.652344 19.179688 25.492188 19.289062 L 24.621094 19.890625 C 24.242188 19.671875 23.859375 19.507812 23.425781 19.398438 L 23.210938 18.304688 C 23.210938 18.140625 23.046875 18.03125 22.828125 18.03125 L 20.765625 18.03125 C 20.546875 18.03125 20.382812 18.195312 20.382812 18.359375 L 20.167969 19.453125 C 19.949219 19.507812 19.675781 19.617188 19.460938 19.726562 L 19.460938 15.738281 C 19.460938 13.933594 16.417969 12.511719 12.5625 12.511719 C 8.703125 12.511719 5.660156 13.933594 5.660156 15.792969 L 5.660156 29.289062 C 5.660156 31.039062 8.703125 32.511719 12.5625 32.511719 Z M 19.1875 20.765625 L 19.296875 20.710938 C 19.730469 20.492188 20.167969 20.273438 20.65625 20.164062 C 20.820312 20.109375 20.925781 20 20.980469 19.835938 L 21.144531 18.851562 L 22.503906 18.851562 L 22.664062 19.835938 C 22.71875 20 22.828125 20.109375 22.992188 20.164062 C 23.480469 20.273438 23.96875 20.492188 24.457031 20.765625 C 24.621094 20.875 24.785156 20.820312 24.894531 20.765625 L 25.707031 20.164062 L 26.6875 21.148438 L 26.089844 21.96875 C 25.980469 22.078125 25.980469 22.292969 26.089844 22.402344 C 26.359375 22.839844 26.578125 23.332031 26.6875 23.878906 C 26.742188 24.042969 26.847656 24.152344 27.011719 24.207031 L 27.988281 24.371094 L 27.988281 25.738281 L 27.011719 25.957031 C 26.847656 26.011719 26.742188 26.121094 26.6875 26.285156 C 26.578125 26.777344 26.359375 27.265625 26.089844 27.757812 C 25.980469 27.921875 26.035156 28.085938 26.089844 28.195312 L 26.6875 29.015625 L 25.707031 30 L 24.894531 29.398438 C 24.785156 29.289062 24.566406 29.289062 24.457031 29.398438 C 24.023438 29.671875 23.535156 29.890625 22.992188 30 C 22.828125 30.054688 22.71875 30.164062 22.664062 30.328125 L 22.503906 31.3125 L 21.144531 31.3125 L 20.980469 30.328125 C 20.925781 30.164062 20.820312 30.054688 20.65625 30 C 20.167969 29.890625 19.675781 29.671875 19.242188 29.398438 C 19.242188 29.398438 19.1875 29.398438 19.1875 29.34375 C 19.082031 29.289062 18.917969 29.289062 18.808594 29.398438 L 17.992188 30 L 17.015625 29.015625 L 17.613281 28.195312 C 17.722656 28.085938 17.722656 27.867188 17.613281 27.757812 C 17.449219 27.484375 17.339844 27.265625 17.234375 27.050781 C 17.125 26.777344 17.070312 26.558594 17.015625 26.339844 C 16.960938 26.175781 16.851562 26.066406 16.691406 26.011719 L 15.601562 25.792969 L 15.601562 24.425781 L 16.582031 24.261719 C 16.742188 24.207031 16.851562 24.097656 16.90625 23.933594 C 17.015625 23.496094 17.179688 23.058594 17.394531 22.675781 C 17.394531 22.675781 17.394531 22.621094 17.394531 22.621094 C 17.394531 22.566406 17.449219 22.566406 17.449219 22.511719 L 17.503906 22.457031 C 17.558594 22.292969 17.558594 22.132812 17.503906 22.023438 L 16.90625 21.203125 L 17.886719 20.21875 L 18.699219 20.820312 C 18.863281 20.875 19.027344 20.875 19.1875 20.765625 Z M 12.5625 13.277344 C 16.144531 13.277344 18.699219 14.589844 18.699219 15.738281 C 18.699219 16.886719 16.199219 18.195312 12.5625 18.195312 C 8.976562 18.195312 6.421875 16.886719 6.421875 15.738281 C 6.476562 14.589844 8.976562 13.277344 12.5625 13.277344 Z M 6.476562 17.269531 C 7.617188 18.304688 9.898438 18.960938 12.613281 18.960938 C 15.277344 18.960938 17.558594 18.25 18.753906 17.269531 L 18.753906 19.726562 L 18.15625 19.34375 C 17.992188 19.234375 17.777344 19.234375 17.613281 19.398438 L 16.144531 20.820312 C 15.984375 20.984375 15.984375 21.203125 16.09375 21.367188 L 16.636719 22.1875 C 15.496094 22.621094 14.082031 22.839844 12.5625 22.839844 C 8.976562 22.839844 6.421875 21.53125 6.421875 20.382812 L 6.421875 17.269531 Z M 6.476562 21.914062 C 7.617188 22.949219 9.898438 23.605469 12.613281 23.605469 C 13.972656 23.605469 15.277344 23.441406 16.363281 23.113281 C 16.308594 23.222656 16.308594 23.332031 16.253906 23.441406 L 15.167969 23.660156 C 14.953125 23.714844 14.84375 23.878906 14.84375 24.042969 L 14.84375 26.121094 C 14.84375 26.339844 15.003906 26.503906 15.167969 26.503906 L 16.253906 26.722656 C 16.253906 26.777344 16.308594 26.832031 16.308594 26.886719 C 15.222656 27.210938 13.972656 27.429688 12.613281 27.429688 C 9.03125 27.429688 6.476562 26.121094 6.476562 24.972656 Z M 6.476562 26.503906 C 7.617188 27.539062 9.898438 28.195312 12.613281 28.195312 C 14.082031 28.195312 15.441406 27.976562 16.636719 27.59375 C 16.691406 27.703125 16.691406 27.757812 16.742188 27.867188 L 16.144531 28.796875 C 16.039062 28.960938 16.039062 29.179688 16.199219 29.34375 L 17.503906 30.65625 C 16.417969 31.257812 14.734375 31.695312 12.613281 31.695312 C 9.03125 31.695312 6.476562 30.382812 6.476562 29.234375 Z M 6.476562 26.503906 " fill-opacity="1" fill-rule="nonzero"/><path fill="#000000" d="M 14.570312 6.339844 C 14.570312 7.8125 15.765625 9.015625 17.234375 9.015625 C 18.699219 9.015625 19.894531 7.8125 19.894531 6.339844 C 19.894531 4.863281 18.699219 3.660156 17.234375 3.660156 C 15.765625 3.660156 14.570312 4.863281 14.570312 6.339844 Z M 17.234375 4.480469 C 18.265625 4.480469 19.082031 5.300781 19.082031 6.339844 C 19.082031 7.378906 18.265625 8.195312 17.234375 8.195312 C 16.199219 8.195312 15.386719 7.378906 15.386719 6.339844 C 15.386719 5.300781 16.199219 4.480469 17.234375 4.480469 Z M 17.234375 4.480469 " fill-opacity="1" fill-rule="nonzero"/></svg>