<svg xmlns="http://www.w3.org/2000/svg" xmlns:xlink="http://www.w3.org/1999/xlink" width="43" zoomAndPan="magnify" viewBox="0 0 32.25 24.75" height="33" preserveAspectRatio="xMidYMid meet" version="1.0"><defs><clipPath id="88f99b0613"><path d="M 0 0.160156 L 31.515625 0.160156 L 31.515625 23.613281 L 0 23.613281 Z M 0 0.160156 " clip-rule="nonzero"/></clipPath><clipPath id="5d9f9a6adc"><path d="M 0 0.160156 L 31.515625 0.160156 L 31.515625 23.613281 L 0 23.613281 Z M 0 0.160156 " clip-rule="nonzero"/></clipPath></defs><g clip-path="url(#88f99b0613)"><path fill="#000000" d="M 27.507812 9.007812 C 27.554688 8.667969 27.578125 8.324219 27.578125 7.976562 C 27.578125 3.667969 24.042969 0.160156 19.699219 0.160156 C 17.179688 0.160156 14.863281 1.34375 13.398438 3.277344 C 12.878906 3.15625 12.355469 3.09375 11.820312 3.09375 C 8.019531 3.09375 4.925781 6.160156 4.925781 9.933594 C 4.925781 10.027344 4.925781 10.121094 4.929688 10.214844 C 2.082031 11.054688 0 13.675781 0 16.773438 C 0 20.542969 3.09375 23.613281 6.894531 23.613281 L 23.636719 23.613281 C 27.984375 23.613281 31.515625 20.105469 31.515625 15.796875 C 31.515625 12.945312 29.9375 10.371094 27.507812 9.007812 Z M 23.636719 21.65625 L 6.894531 21.65625 C 4.175781 21.65625 1.96875 19.472656 1.96875 16.773438 C 1.96875 14.074219 4.175781 11.886719 6.894531 11.886719 C 7.042969 11.886719 7.1875 11.917969 7.332031 11.929688 C 7.054688 11.320312 6.894531 10.644531 6.894531 9.933594 C 6.894531 7.234375 9.097656 5.046875 11.820312 5.046875 C 12.707031 5.046875 13.53125 5.296875 14.25 5.707031 C 15.144531 3.597656 17.246094 2.113281 19.699219 2.113281 C 22.960938 2.113281 25.609375 4.738281 25.609375 7.976562 C 25.609375 8.75 25.449219 9.480469 25.175781 10.15625 C 27.6875 10.832031 29.546875 13.089844 29.546875 15.796875 C 29.546875 19.035156 26.902344 21.65625 23.636719 21.65625 Z M 23.636719 21.65625 " fill-opacity="1" fill-rule="nonzero"/></g><path fill="#000000" d="M 17.726562 13.839844 L 19.699219 13.839844 C 19.699219 15.996094 17.929688 17.75 15.757812 17.75 C 15.027344 17.75 14.335938 17.53125 13.730469 17.171875 L 12.535156 18.753906 C 13.476562 19.359375 14.589844 19.703125 15.757812 19.703125 C 19.015625 19.703125 21.667969 17.074219 21.667969 13.839844 L 23.636719 13.839844 L 20.683594 9.933594 Z M 17.726562 13.839844 " fill-opacity="1" fill-rule="nonzero"/><path fill="#000000" d="M 11.820312 13.839844 C 11.820312 11.683594 13.585938 9.933594 15.757812 9.933594 C 16.492188 9.933594 17.183594 10.148438 17.785156 10.507812 L 18.980469 8.925781 C 18.042969 8.320312 16.929688 7.976562 15.757812 7.976562 C 12.5 7.976562 9.847656 10.609375 9.847656 13.839844 L 7.878906 13.839844 L 10.832031 17.75 L 13.789062 13.839844 Z M 11.820312 13.839844 " fill-opacity="1" fill-rule="nonzero"/><g clip-path="url(#5d9f9a6adc)"><path fill="#000000" d="M 27.507812 9.007812 C 27.554688 8.667969 27.578125 8.324219 27.578125 7.976562 C 27.578125 3.667969 24.042969 0.160156 19.699219 0.160156 C 17.179688 0.160156 14.863281 1.34375 13.398438 3.277344 C 12.878906 3.15625 12.355469 3.09375 11.820312 3.09375 C 8.019531 3.09375 4.925781 6.160156 4.925781 9.933594 C 4.925781 10.027344 4.925781 10.121094 4.929688 10.214844 C 2.082031 11.054688 0 13.675781 0 16.773438 C 0 20.542969 3.09375 23.613281 6.894531 23.613281 L 23.636719 23.613281 C 27.984375 23.613281 31.515625 20.105469 31.515625 15.796875 C 31.515625 12.945312 29.9375 10.371094 27.507812 9.007812 Z M 23.636719 21.65625 L 6.894531 21.65625 C 4.175781 21.65625 1.96875 19.472656 1.96875 16.773438 C 1.96875 14.074219 4.175781 11.886719 6.894531 11.886719 C 7.042969 11.886719 7.1875 11.917969 7.332031 11.929688 C 7.054688 11.320312 6.894531 10.644531 6.894531 9.933594 C 6.894531 7.234375 9.097656 5.046875 11.820312 5.046875 C 12.707031 5.046875 13.53125 5.296875 14.25 5.707031 C 15.144531 3.597656 17.246094 2.113281 19.699219 2.113281 C 22.960938 2.113281 25.609375 4.738281 25.609375 7.976562 C 25.609375 8.75 25.449219 9.480469 25.175781 10.15625 C 27.6875 10.832031 29.546875 13.089844 29.546875 15.796875 C 29.546875 19.035156 26.902344 21.65625 23.636719 21.65625 Z M 23.636719 21.65625 " fill-opacity="1" fill-rule="nonzero"/></g><path fill="#000000" d="M 17.726562 13.839844 L 19.699219 13.839844 C 19.699219 15.996094 17.929688 17.75 15.757812 17.75 C 15.027344 17.75 14.335938 17.53125 13.730469 17.171875 L 12.535156 18.753906 C 13.476562 19.359375 14.589844 19.703125 15.757812 19.703125 C 19.015625 19.703125 21.667969 17.074219 21.667969 13.839844 L 23.636719 13.839844 L 20.683594 9.933594 Z M 17.726562 13.839844 " fill-opacity="1" fill-rule="nonzero"/><path fill="#000000" d="M 11.820312 13.839844 C 11.820312 11.683594 13.585938 9.933594 15.757812 9.933594 C 16.492188 9.933594 17.183594 10.148438 17.785156 10.507812 L 18.980469 8.925781 C 18.042969 8.320312 16.929688 7.976562 15.757812 7.976562 C 12.5 7.976562 9.847656 10.609375 9.847656 13.839844 L 7.878906 13.839844 L 10.832031 17.75 L 13.789062 13.839844 Z M 11.820312 13.839844 " fill-opacity="1" fill-rule="nonzero"/></svg>