<svg xmlns="http://www.w3.org/2000/svg" xmlns:xlink="http://www.w3.org/1999/xlink" width="26" zoomAndPan="magnify" viewBox="0 0 19.5 32.999998" height="44" preserveAspectRatio="xMidYMid meet" version="1.0"><defs><clipPath id="c85e47b8b3"><path d="M 0 8 L 19 8 L 19 32.585938 L 0 32.585938 Z M 0 8 " clip-rule="nonzero"/></clipPath><clipPath id="8414dca18c"><path d="M 0 8 L 19 8 L 19 32.585938 L 0 32.585938 Z M 0 8 " clip-rule="nonzero"/></clipPath><clipPath id="81675c8ba8"><path d="M 0 8 L 19 8 L 19 32.585938 L 0 32.585938 Z M 0 8 " clip-rule="nonzero"/></clipPath><clipPath id="189dcab6f5"><path d="M 0 8 L 19 8 L 19 32.585938 L 0 32.585938 Z M 0 8 " clip-rule="nonzero"/></clipPath><clipPath id="273265c95d"><path d="M 0 8 L 19 8 L 19 32.585938 L 0 32.585938 Z M 0 8 " clip-rule="nonzero"/></clipPath><clipPath id="41bd8e57ff"><path d="M 0 8 L 19 8 L 19 32.585938 L 0 32.585938 Z M 0 8 " clip-rule="nonzero"/></clipPath></defs><path fill="#000000" d="M 11.214844 12.949219 C 11.28125 13.019531 11.375 13.050781 11.464844 13.050781 C 11.558594 13.050781 11.644531 13.019531 11.710938 12.949219 C 12.675781 11.980469 13.210938 10.691406 13.210938 9.320312 C 13.210938 7.949219 12.675781 6.65625 11.710938 5.691406 C 10.746094 4.722656 9.460938 4.183594 8.097656 4.183594 C 6.734375 4.183594 5.449219 4.722656 4.484375 5.691406 C 2.492188 7.691406 2.492188 10.953125 4.484375 12.949219 C 4.625 13.089844 4.847656 13.089844 4.988281 12.949219 C 5.128906 12.808594 5.128906 12.585938 4.988281 12.445312 C 3.265625 10.71875 3.265625 7.914062 4.988281 6.1875 C 5.816406 5.355469 6.925781 4.890625 8.105469 4.890625 C 9.28125 4.890625 10.386719 5.355469 11.222656 6.1875 C 12.050781 7.019531 12.511719 8.136719 12.511719 9.320312 C 12.511719 10.503906 12.058594 11.613281 11.222656 12.453125 C 11.074219 12.585938 11.074219 12.816406 11.214844 12.949219 Z M 11.214844 12.949219 " fill-opacity="1" fill-rule="nonzero"/><path fill="#000000" d="M 2.886719 15.0625 C 3.027344 14.921875 3.027344 14.699219 2.886719 14.558594 C 1.496094 13.160156 0.726562 11.296875 0.726562 9.320312 C 0.726562 7.34375 1.488281 5.480469 2.878906 4.082031 C 5.75 1.199219 10.425781 1.199219 13.304688 4.082031 C 14.695312 5.480469 15.464844 7.34375 15.464844 9.320312 C 15.464844 11.296875 14.703125 13.160156 13.308594 14.558594 C 13.167969 14.699219 13.167969 14.921875 13.308594 15.0625 C 13.375 15.128906 13.46875 15.164062 13.558594 15.164062 C 13.652344 15.164062 13.738281 15.128906 13.804688 15.0625 C 15.332031 13.527344 16.167969 11.492188 16.167969 9.320312 C 16.167969 7.15625 15.324219 5.113281 13.796875 3.578125 C 10.648438 0.414062 5.523438 0.414062 2.378906 3.578125 C 0.851562 5.113281 0.015625 7.148438 0.015625 9.320312 C 0.015625 11.484375 0.859375 13.527344 2.382812 15.0625 C 2.523438 15.195312 2.753906 15.195312 2.886719 15.0625 Z M 2.886719 15.0625 " fill-opacity="1" fill-rule="nonzero"/><g clip-path="url(#c85e47b8b3)"><path fill="#000000" d="M 18.628906 29.171875 L 16.84375 29.171875 L 17.898438 25.917969 C 18.402344 24.371094 18.65625 22.765625 18.65625 21.140625 L 18.65625 20.714844 C 18.65625 19.027344 17.457031 17.617188 15.851562 17.394531 C 15.398438 16.734375 14.320312 15.847656 12.828125 16.265625 C 12.519531 15.886719 11.777344 15.28125 10.199219 15.492188 L 9.859375 10.488281 C 9.796875 9.601562 9.054688 8.902344 8.164062 8.902344 C 7.226562 8.902344 6.472656 9.667969 6.472656 10.605469 L 6.472656 21.40625 C 5.5625 20.613281 3.789062 19.25 2.242188 19.304688 C 1.589844 19.316406 1.03125 19.574219 0.597656 20.0625 C 0.476562 20.199219 0.476562 20.390625 0.589844 20.527344 C 0.617188 20.558594 3.179688 23.632812 4.894531 27.007812 C 4.90625 27.035156 4.925781 27.0625 4.945312 27.082031 L 6.808594 29.160156 L 6.0625 29.160156 C 5.871094 29.160156 5.710938 29.320312 5.710938 29.515625 L 5.710938 32.230469 C 5.710938 32.425781 5.871094 32.585938 6.0625 32.585938 C 6.257812 32.585938 6.417969 32.425781 6.417969 32.230469 L 6.417969 29.871094 L 18.289062 29.871094 L 18.289062 32.230469 C 18.289062 32.425781 18.449219 32.585938 18.640625 32.585938 C 18.835938 32.585938 18.996094 32.425781 18.996094 32.230469 L 18.996094 29.515625 C 18.984375 29.332031 18.828125 29.171875 18.628906 29.171875 Z M 7.738281 29.160156 L 5.496094 26.652344 C 4.035156 23.789062 1.996094 21.152344 1.339844 20.339844 C 1.601562 20.136719 1.902344 20.03125 2.257812 20.023438 C 4.117188 19.996094 6.550781 22.449219 6.574219 22.476562 C 6.671875 22.578125 6.828125 22.609375 6.960938 22.558594 C 7.09375 22.503906 7.179688 22.375 7.179688 22.226562 L 7.179688 10.609375 C 7.179688 10.066406 7.621094 9.617188 8.171875 9.617188 C 8.6875 9.617188 9.121094 10.019531 9.15625 10.542969 L 9.523438 15.929688 L 9.675781 19.164062 C 9.683594 19.351562 9.84375 19.5 10.03125 19.5 C 10.039062 19.5 10.042969 19.5 10.050781 19.5 C 10.246094 19.492188 10.398438 19.324219 10.386719 19.128906 L 10.253906 16.210938 C 11.699219 16.007812 12.21875 16.585938 12.339844 16.769531 L 12.339844 19.054688 C 12.339844 19.25 12.5 19.410156 12.695312 19.410156 C 12.886719 19.410156 13.050781 19.25 13.050781 19.054688 L 13.050781 16.957031 C 14.347656 16.621094 15.117188 17.554688 15.304688 17.832031 L 15.304688 19.5 C 15.304688 19.691406 15.464844 19.855469 15.65625 19.855469 C 15.851562 19.855469 16.011719 19.691406 16.011719 19.5 L 16.011719 18.148438 C 17.144531 18.414062 17.964844 19.464844 17.964844 20.707031 L 17.964844 21.132812 C 17.964844 22.683594 17.726562 24.21875 17.242188 25.691406 L 16.121094 29.164062 L 7.757812 29.164062 C 7.738281 29.171875 7.738281 29.164062 7.738281 29.160156 Z M 7.738281 29.160156 " fill-opacity="1" fill-rule="nonzero"/></g><path fill="#000000" d="M 11.214844 12.949219 C 11.28125 13.019531 11.375 13.050781 11.464844 13.050781 C 11.558594 13.050781 11.644531 13.019531 11.710938 12.949219 C 12.675781 11.980469 13.210938 10.691406 13.210938 9.320312 C 13.210938 7.949219 12.675781 6.65625 11.710938 5.691406 C 10.746094 4.722656 9.460938 4.183594 8.097656 4.183594 C 6.734375 4.183594 5.449219 4.722656 4.484375 5.691406 C 2.492188 7.691406 2.492188 10.953125 4.484375 12.949219 C 4.625 13.089844 4.847656 13.089844 4.988281 12.949219 C 5.128906 12.808594 5.128906 12.585938 4.988281 12.445312 C 3.265625 10.71875 3.265625 7.914062 4.988281 6.1875 C 5.816406 5.355469 6.925781 4.890625 8.105469 4.890625 C 9.28125 4.890625 10.386719 5.355469 11.222656 6.1875 C 12.050781 7.019531 12.511719 8.136719 12.511719 9.320312 C 12.511719 10.503906 12.058594 11.613281 11.222656 12.453125 C 11.074219 12.585938 11.074219 12.816406 11.214844 12.949219 Z M 11.214844 12.949219 " fill-opacity="1" fill-rule="nonzero"/><path fill="#000000" d="M 2.886719 15.0625 C 3.027344 14.921875 3.027344 14.699219 2.886719 14.558594 C 1.496094 13.160156 0.726562 11.296875 0.726562 9.320312 C 0.726562 7.34375 1.488281 5.480469 2.878906 4.082031 C 5.75 1.199219 10.425781 1.199219 13.304688 4.082031 C 14.695312 5.480469 15.464844 7.34375 15.464844 9.320312 C 15.464844 11.296875 14.703125 13.160156 13.308594 14.558594 C 13.167969 14.699219 13.167969 14.921875 13.308594 15.0625 C 13.375 15.128906 13.46875 15.164062 13.558594 15.164062 C 13.652344 15.164062 13.738281 15.128906 13.804688 15.0625 C 15.332031 13.527344 16.167969 11.492188 16.167969 9.320312 C 16.167969 7.15625 15.324219 5.113281 13.796875 3.578125 C 10.648438 0.414062 5.523438 0.414062 2.378906 3.578125 C 0.851562 5.113281 0.015625 7.148438 0.015625 9.320312 C 0.015625 11.484375 0.859375 13.527344 2.382812 15.0625 C 2.523438 15.195312 2.753906 15.195312 2.886719 15.0625 Z M 2.886719 15.0625 " fill-opacity="1" fill-rule="nonzero"/><g clip-path="url(#8414dca18c)"><path fill="#000000" d="M 18.628906 29.171875 L 16.84375 29.171875 L 17.898438 25.917969 C 18.402344 24.371094 18.65625 22.765625 18.65625 21.140625 L 18.65625 20.714844 C 18.65625 19.027344 17.457031 17.617188 15.851562 17.394531 C 15.398438 16.734375 14.320312 15.847656 12.828125 16.265625 C 12.519531 15.886719 11.777344 15.28125 10.199219 15.492188 L 9.859375 10.488281 C 9.796875 9.601562 9.054688 8.902344 8.164062 8.902344 C 7.226562 8.902344 6.472656 9.667969 6.472656 10.605469 L 6.472656 21.40625 C 5.5625 20.613281 3.789062 19.25 2.242188 19.304688 C 1.589844 19.316406 1.03125 19.574219 0.597656 20.0625 C 0.476562 20.199219 0.476562 20.390625 0.589844 20.527344 C 0.617188 20.558594 3.179688 23.632812 4.894531 27.007812 C 4.90625 27.035156 4.925781 27.0625 4.945312 27.082031 L 6.808594 29.160156 L 6.0625 29.160156 C 5.871094 29.160156 5.710938 29.320312 5.710938 29.515625 L 5.710938 32.230469 C 5.710938 32.425781 5.871094 32.585938 6.0625 32.585938 C 6.257812 32.585938 6.417969 32.425781 6.417969 32.230469 L 6.417969 29.871094 L 18.289062 29.871094 L 18.289062 32.230469 C 18.289062 32.425781 18.449219 32.585938 18.640625 32.585938 C 18.835938 32.585938 18.996094 32.425781 18.996094 32.230469 L 18.996094 29.515625 C 18.984375 29.332031 18.828125 29.171875 18.628906 29.171875 Z M 7.738281 29.160156 L 5.496094 26.652344 C 4.035156 23.789062 1.996094 21.152344 1.339844 20.339844 C 1.601562 20.136719 1.902344 20.03125 2.257812 20.023438 C 4.117188 19.996094 6.550781 22.449219 6.574219 22.476562 C 6.671875 22.578125 6.828125 22.609375 6.960938 22.558594 C 7.09375 22.503906 7.179688 22.375 7.179688 22.226562 L 7.179688 10.609375 C 7.179688 10.066406 7.621094 9.617188 8.171875 9.617188 C 8.6875 9.617188 9.121094 10.019531 9.15625 10.542969 L 9.523438 15.929688 L 9.675781 19.164062 C 9.683594 19.351562 9.84375 19.5 10.03125 19.5 C 10.039062 19.5 10.042969 19.5 10.050781 19.5 C 10.246094 19.492188 10.398438 19.324219 10.386719 19.128906 L 10.253906 16.210938 C 11.699219 16.007812 12.21875 16.585938 12.339844 16.769531 L 12.339844 19.054688 C 12.339844 19.25 12.5 19.410156 12.695312 19.410156 C 12.886719 19.410156 13.050781 19.25 13.050781 19.054688 L 13.050781 16.957031 C 14.347656 16.621094 15.117188 17.554688 15.304688 17.832031 L 15.304688 19.5 C 15.304688 19.691406 15.464844 19.855469 15.65625 19.855469 C 15.851562 19.855469 16.011719 19.691406 16.011719 19.5 L 16.011719 18.148438 C 17.144531 18.414062 17.964844 19.464844 17.964844 20.707031 L 17.964844 21.132812 C 17.964844 22.683594 17.726562 24.21875 17.242188 25.691406 L 16.121094 29.164062 L 7.757812 29.164062 C 7.738281 29.171875 7.738281 29.164062 7.738281 29.160156 Z M 7.738281 29.160156 " fill-opacity="1" fill-rule="nonzero"/></g><path fill="#000000" d="M 11.214844 12.949219 C 11.28125 13.019531 11.375 13.050781 11.464844 13.050781 C 11.558594 13.050781 11.644531 13.019531 11.710938 12.949219 C 12.675781 11.980469 13.210938 10.691406 13.210938 9.320312 C 13.210938 7.949219 12.675781 6.65625 11.710938 5.691406 C 10.746094 4.722656 9.460938 4.183594 8.097656 4.183594 C 6.734375 4.183594 5.449219 4.722656 4.484375 5.691406 C 2.492188 7.691406 2.492188 10.953125 4.484375 12.949219 C 4.625 13.089844 4.847656 13.089844 4.988281 12.949219 C 5.128906 12.808594 5.128906 12.585938 4.988281 12.445312 C 3.265625 10.71875 3.265625 7.914062 4.988281 6.1875 C 5.816406 5.355469 6.925781 4.890625 8.105469 4.890625 C 9.28125 4.890625 10.386719 5.355469 11.222656 6.1875 C 12.050781 7.019531 12.511719 8.136719 12.511719 9.320312 C 12.511719 10.503906 12.058594 11.613281 11.222656 12.453125 C 11.074219 12.585938 11.074219 12.816406 11.214844 12.949219 Z M 11.214844 12.949219 " fill-opacity="1" fill-rule="nonzero"/><path fill="#000000" d="M 2.886719 15.0625 C 3.027344 14.921875 3.027344 14.699219 2.886719 14.558594 C 1.496094 13.160156 0.726562 11.296875 0.726562 9.320312 C 0.726562 7.34375 1.488281 5.480469 2.878906 4.082031 C 5.75 1.199219 10.425781 1.199219 13.304688 4.082031 C 14.695312 5.480469 15.464844 7.34375 15.464844 9.320312 C 15.464844 11.296875 14.703125 13.160156 13.308594 14.558594 C 13.167969 14.699219 13.167969 14.921875 13.308594 15.0625 C 13.375 15.128906 13.46875 15.164062 13.558594 15.164062 C 13.652344 15.164062 13.738281 15.128906 13.804688 15.0625 C 15.332031 13.527344 16.167969 11.492188 16.167969 9.320312 C 16.167969 7.15625 15.324219 5.113281 13.796875 3.578125 C 10.648438 0.414062 5.523438 0.414062 2.378906 3.578125 C 0.851562 5.113281 0.015625 7.148438 0.015625 9.320312 C 0.015625 11.484375 0.859375 13.527344 2.382812 15.0625 C 2.523438 15.195312 2.753906 15.195312 2.886719 15.0625 Z M 2.886719 15.0625 " fill-opacity="1" fill-rule="nonzero"/><g clip-path="url(#81675c8ba8)"><path fill="#000000" d="M 18.628906 29.171875 L 16.84375 29.171875 L 17.898438 25.917969 C 18.402344 24.371094 18.65625 22.765625 18.65625 21.140625 L 18.65625 20.714844 C 18.65625 19.027344 17.457031 17.617188 15.851562 17.394531 C 15.398438 16.734375 14.320312 15.847656 12.828125 16.265625 C 12.519531 15.886719 11.777344 15.28125 10.199219 15.492188 L 9.859375 10.488281 C 9.796875 9.601562 9.054688 8.902344 8.164062 8.902344 C 7.226562 8.902344 6.472656 9.667969 6.472656 10.605469 L 6.472656 21.40625 C 5.5625 20.613281 3.789062 19.25 2.242188 19.304688 C 1.589844 19.316406 1.03125 19.574219 0.597656 20.0625 C 0.476562 20.199219 0.476562 20.390625 0.589844 20.527344 C 0.617188 20.558594 3.179688 23.632812 4.894531 27.007812 C 4.90625 27.035156 4.925781 27.0625 4.945312 27.082031 L 6.808594 29.160156 L 6.0625 29.160156 C 5.871094 29.160156 5.710938 29.320312 5.710938 29.515625 L 5.710938 32.230469 C 5.710938 32.425781 5.871094 32.585938 6.0625 32.585938 C 6.257812 32.585938 6.417969 32.425781 6.417969 32.230469 L 6.417969 29.871094 L 18.289062 29.871094 L 18.289062 32.230469 C 18.289062 32.425781 18.449219 32.585938 18.640625 32.585938 C 18.835938 32.585938 18.996094 32.425781 18.996094 32.230469 L 18.996094 29.515625 C 18.984375 29.332031 18.828125 29.171875 18.628906 29.171875 Z M 7.738281 29.160156 L 5.496094 26.652344 C 4.035156 23.789062 1.996094 21.152344 1.339844 20.339844 C 1.601562 20.136719 1.902344 20.03125 2.257812 20.023438 C 4.117188 19.996094 6.550781 22.449219 6.574219 22.476562 C 6.671875 22.578125 6.828125 22.609375 6.960938 22.558594 C 7.09375 22.503906 7.179688 22.375 7.179688 22.226562 L 7.179688 10.609375 C 7.179688 10.066406 7.621094 9.617188 8.171875 9.617188 C 8.6875 9.617188 9.121094 10.019531 9.15625 10.542969 L 9.523438 15.929688 L 9.675781 19.164062 C 9.683594 19.351562 9.84375 19.5 10.03125 19.5 C 10.039062 19.5 10.042969 19.5 10.050781 19.5 C 10.246094 19.492188 10.398438 19.324219 10.386719 19.128906 L 10.253906 16.210938 C 11.699219 16.007812 12.21875 16.585938 12.339844 16.769531 L 12.339844 19.054688 C 12.339844 19.25 12.5 19.410156 12.695312 19.410156 C 12.886719 19.410156 13.050781 19.25 13.050781 19.054688 L 13.050781 16.957031 C 14.347656 16.621094 15.117188 17.554688 15.304688 17.832031 L 15.304688 19.5 C 15.304688 19.691406 15.464844 19.855469 15.65625 19.855469 C 15.851562 19.855469 16.011719 19.691406 16.011719 19.5 L 16.011719 18.148438 C 17.144531 18.414062 17.964844 19.464844 17.964844 20.707031 L 17.964844 21.132812 C 17.964844 22.683594 17.726562 24.21875 17.242188 25.691406 L 16.121094 29.164062 L 7.757812 29.164062 C 7.738281 29.171875 7.738281 29.164062 7.738281 29.160156 Z M 7.738281 29.160156 " fill-opacity="1" fill-rule="nonzero"/></g><path fill="#000000" d="M 11.214844 12.949219 C 11.28125 13.019531 11.375 13.050781 11.464844 13.050781 C 11.558594 13.050781 11.644531 13.019531 11.710938 12.949219 C 12.675781 11.980469 13.210938 10.691406 13.210938 9.320312 C 13.210938 7.949219 12.675781 6.65625 11.710938 5.691406 C 10.746094 4.722656 9.460938 4.183594 8.097656 4.183594 C 6.734375 4.183594 5.449219 4.722656 4.484375 5.691406 C 2.492188 7.691406 2.492188 10.953125 4.484375 12.949219 C 4.625 13.089844 4.847656 13.089844 4.988281 12.949219 C 5.128906 12.808594 5.128906 12.585938 4.988281 12.445312 C 3.265625 10.71875 3.265625 7.914062 4.988281 6.1875 C 5.816406 5.355469 6.925781 4.890625 8.105469 4.890625 C 9.28125 4.890625 10.386719 5.355469 11.222656 6.1875 C 12.050781 7.019531 12.511719 8.136719 12.511719 9.320312 C 12.511719 10.503906 12.058594 11.613281 11.222656 12.453125 C 11.074219 12.585938 11.074219 12.816406 11.214844 12.949219 Z M 11.214844 12.949219 " fill-opacity="1" fill-rule="nonzero"/><path fill="#000000" d="M 2.886719 15.0625 C 3.027344 14.921875 3.027344 14.699219 2.886719 14.558594 C 1.496094 13.160156 0.726562 11.296875 0.726562 9.320312 C 0.726562 7.34375 1.488281 5.480469 2.878906 4.082031 C 5.75 1.199219 10.425781 1.199219 13.304688 4.082031 C 14.695312 5.480469 15.464844 7.34375 15.464844 9.320312 C 15.464844 11.296875 14.703125 13.160156 13.308594 14.558594 C 13.167969 14.699219 13.167969 14.921875 13.308594 15.0625 C 13.375 15.128906 13.46875 15.164062 13.558594 15.164062 C 13.652344 15.164062 13.738281 15.128906 13.804688 15.0625 C 15.332031 13.527344 16.167969 11.492188 16.167969 9.320312 C 16.167969 7.15625 15.324219 5.113281 13.796875 3.578125 C 10.648438 0.414062 5.523438 0.414062 2.378906 3.578125 C 0.851562 5.113281 0.015625 7.148438 0.015625 9.320312 C 0.015625 11.484375 0.859375 13.527344 2.382812 15.0625 C 2.523438 15.195312 2.753906 15.195312 2.886719 15.0625 Z M 2.886719 15.0625 " fill-opacity="1" fill-rule="nonzero"/><g clip-path="url(#189dcab6f5)"><path fill="#000000" d="M 18.628906 29.171875 L 16.84375 29.171875 L 17.898438 25.917969 C 18.402344 24.371094 18.65625 22.765625 18.65625 21.140625 L 18.65625 20.714844 C 18.65625 19.027344 17.457031 17.617188 15.851562 17.394531 C 15.398438 16.734375 14.320312 15.847656 12.828125 16.265625 C 12.519531 15.886719 11.777344 15.28125 10.199219 15.492188 L 9.859375 10.488281 C 9.796875 9.601562 9.054688 8.902344 8.164062 8.902344 C 7.226562 8.902344 6.472656 9.667969 6.472656 10.605469 L 6.472656 21.40625 C 5.5625 20.613281 3.789062 19.25 2.242188 19.304688 C 1.589844 19.316406 1.03125 19.574219 0.597656 20.0625 C 0.476562 20.199219 0.476562 20.390625 0.589844 20.527344 C 0.617188 20.558594 3.179688 23.632812 4.894531 27.007812 C 4.90625 27.035156 4.925781 27.0625 4.945312 27.082031 L 6.808594 29.160156 L 6.0625 29.160156 C 5.871094 29.160156 5.710938 29.320312 5.710938 29.515625 L 5.710938 32.230469 C 5.710938 32.425781 5.871094 32.585938 6.0625 32.585938 C 6.257812 32.585938 6.417969 32.425781 6.417969 32.230469 L 6.417969 29.871094 L 18.289062 29.871094 L 18.289062 32.230469 C 18.289062 32.425781 18.449219 32.585938 18.640625 32.585938 C 18.835938 32.585938 18.996094 32.425781 18.996094 32.230469 L 18.996094 29.515625 C 18.984375 29.332031 18.828125 29.171875 18.628906 29.171875 Z M 7.738281 29.160156 L 5.496094 26.652344 C 4.035156 23.789062 1.996094 21.152344 1.339844 20.339844 C 1.601562 20.136719 1.902344 20.03125 2.257812 20.023438 C 4.117188 19.996094 6.550781 22.449219 6.574219 22.476562 C 6.671875 22.578125 6.828125 22.609375 6.960938 22.558594 C 7.09375 22.503906 7.179688 22.375 7.179688 22.226562 L 7.179688 10.609375 C 7.179688 10.066406 7.621094 9.617188 8.171875 9.617188 C 8.6875 9.617188 9.121094 10.019531 9.15625 10.542969 L 9.523438 15.929688 L 9.675781 19.164062 C 9.683594 19.351562 9.84375 19.5 10.03125 19.5 C 10.039062 19.5 10.042969 19.5 10.050781 19.5 C 10.246094 19.492188 10.398438 19.324219 10.386719 19.128906 L 10.253906 16.210938 C 11.699219 16.007812 12.21875 16.585938 12.339844 16.769531 L 12.339844 19.054688 C 12.339844 19.25 12.5 19.410156 12.695312 19.410156 C 12.886719 19.410156 13.050781 19.25 13.050781 19.054688 L 13.050781 16.957031 C 14.347656 16.621094 15.117188 17.554688 15.304688 17.832031 L 15.304688 19.5 C 15.304688 19.691406 15.464844 19.855469 15.65625 19.855469 C 15.851562 19.855469 16.011719 19.691406 16.011719 19.5 L 16.011719 18.148438 C 17.144531 18.414062 17.964844 19.464844 17.964844 20.707031 L 17.964844 21.132812 C 17.964844 22.683594 17.726562 24.21875 17.242188 25.691406 L 16.121094 29.164062 L 7.757812 29.164062 C 7.738281 29.171875 7.738281 29.164062 7.738281 29.160156 Z M 7.738281 29.160156 " fill-opacity="1" fill-rule="nonzero"/></g><path fill="#000000" d="M 11.214844 12.949219 C 11.28125 13.019531 11.375 13.050781 11.464844 13.050781 C 11.558594 13.050781 11.644531 13.019531 11.710938 12.949219 C 12.675781 11.980469 13.210938 10.691406 13.210938 9.320312 C 13.210938 7.949219 12.675781 6.65625 11.710938 5.691406 C 10.746094 4.722656 9.460938 4.183594 8.097656 4.183594 C 6.734375 4.183594 5.449219 4.722656 4.484375 5.691406 C 2.492188 7.691406 2.492188 10.953125 4.484375 12.949219 C 4.625 13.089844 4.847656 13.089844 4.988281 12.949219 C 5.128906 12.808594 5.128906 12.585938 4.988281 12.445312 C 3.265625 10.71875 3.265625 7.914062 4.988281 6.1875 C 5.816406 5.355469 6.925781 4.890625 8.105469 4.890625 C 9.28125 4.890625 10.386719 5.355469 11.222656 6.1875 C 12.050781 7.019531 12.511719 8.136719 12.511719 9.320312 C 12.511719 10.503906 12.058594 11.613281 11.222656 12.453125 C 11.074219 12.585938 11.074219 12.816406 11.214844 12.949219 Z M 11.214844 12.949219 " fill-opacity="1" fill-rule="nonzero"/><path fill="#000000" d="M 2.886719 15.0625 C 3.027344 14.921875 3.027344 14.699219 2.886719 14.558594 C 1.496094 13.160156 0.726562 11.296875 0.726562 9.320312 C 0.726562 7.34375 1.488281 5.480469 2.878906 4.082031 C 5.75 1.199219 10.425781 1.199219 13.304688 4.082031 C 14.695312 5.480469 15.464844 7.34375 15.464844 9.320312 C 15.464844 11.296875 14.703125 13.160156 13.308594 14.558594 C 13.167969 14.699219 13.167969 14.921875 13.308594 15.0625 C 13.375 15.128906 13.46875 15.164062 13.558594 15.164062 C 13.652344 15.164062 13.738281 15.128906 13.804688 15.0625 C 15.332031 13.527344 16.167969 11.492188 16.167969 9.320312 C 16.167969 7.15625 15.324219 5.113281 13.796875 3.578125 C 10.648438 0.414062 5.523438 0.414062 2.378906 3.578125 C 0.851562 5.113281 0.015625 7.148438 0.015625 9.320312 C 0.015625 11.484375 0.859375 13.527344 2.382812 15.0625 C 2.523438 15.195312 2.753906 15.195312 2.886719 15.0625 Z M 2.886719 15.0625 " fill-opacity="1" fill-rule="nonzero"/><g clip-path="url(#273265c95d)"><path fill="#000000" d="M 18.628906 29.171875 L 16.84375 29.171875 L 17.898438 25.917969 C 18.402344 24.371094 18.65625 22.765625 18.65625 21.140625 L 18.65625 20.714844 C 18.65625 19.027344 17.457031 17.617188 15.851562 17.394531 C 15.398438 16.734375 14.320312 15.847656 12.828125 16.265625 C 12.519531 15.886719 11.777344 15.28125 10.199219 15.492188 L 9.859375 10.488281 C 9.796875 9.601562 9.054688 8.902344 8.164062 8.902344 C 7.226562 8.902344 6.472656 9.667969 6.472656 10.605469 L 6.472656 21.40625 C 5.5625 20.613281 3.789062 19.25 2.242188 19.304688 C 1.589844 19.316406 1.03125 19.574219 0.597656 20.0625 C 0.476562 20.199219 0.476562 20.390625 0.589844 20.527344 C 0.617188 20.558594 3.179688 23.632812 4.894531 27.007812 C 4.90625 27.035156 4.925781 27.0625 4.945312 27.082031 L 6.808594 29.160156 L 6.0625 29.160156 C 5.871094 29.160156 5.710938 29.320312 5.710938 29.515625 L 5.710938 32.230469 C 5.710938 32.425781 5.871094 32.585938 6.0625 32.585938 C 6.257812 32.585938 6.417969 32.425781 6.417969 32.230469 L 6.417969 29.871094 L 18.289062 29.871094 L 18.289062 32.230469 C 18.289062 32.425781 18.449219 32.585938 18.640625 32.585938 C 18.835938 32.585938 18.996094 32.425781 18.996094 32.230469 L 18.996094 29.515625 C 18.984375 29.332031 18.828125 29.171875 18.628906 29.171875 Z M 7.738281 29.160156 L 5.496094 26.652344 C 4.035156 23.789062 1.996094 21.152344 1.339844 20.339844 C 1.601562 20.136719 1.902344 20.03125 2.257812 20.023438 C 4.117188 19.996094 6.550781 22.449219 6.574219 22.476562 C 6.671875 22.578125 6.828125 22.609375 6.960938 22.558594 C 7.09375 22.503906 7.179688 22.375 7.179688 22.226562 L 7.179688 10.609375 C 7.179688 10.066406 7.621094 9.617188 8.171875 9.617188 C 8.6875 9.617188 9.121094 10.019531 9.15625 10.542969 L 9.523438 15.929688 L 9.675781 19.164062 C 9.683594 19.351562 9.84375 19.5 10.03125 19.5 C 10.039062 19.5 10.042969 19.5 10.050781 19.5 C 10.246094 19.492188 10.398438 19.324219 10.386719 19.128906 L 10.253906 16.210938 C 11.699219 16.007812 12.21875 16.585938 12.339844 16.769531 L 12.339844 19.054688 C 12.339844 19.25 12.5 19.410156 12.695312 19.410156 C 12.886719 19.410156 13.050781 19.25 13.050781 19.054688 L 13.050781 16.957031 C 14.347656 16.621094 15.117188 17.554688 15.304688 17.832031 L 15.304688 19.5 C 15.304688 19.691406 15.464844 19.855469 15.65625 19.855469 C 15.851562 19.855469 16.011719 19.691406 16.011719 19.5 L 16.011719 18.148438 C 17.144531 18.414062 17.964844 19.464844 17.964844 20.707031 L 17.964844 21.132812 C 17.964844 22.683594 17.726562 24.21875 17.242188 25.691406 L 16.121094 29.164062 L 7.757812 29.164062 C 7.738281 29.171875 7.738281 29.164062 7.738281 29.160156 Z M 7.738281 29.160156 " fill-opacity="1" fill-rule="nonzero"/></g><path fill="#000000" d="M 11.214844 12.949219 C 11.28125 13.019531 11.375 13.050781 11.464844 13.050781 C 11.558594 13.050781 11.644531 13.019531 11.710938 12.949219 C 12.675781 11.980469 13.210938 10.691406 13.210938 9.320312 C 13.210938 7.949219 12.675781 6.65625 11.710938 5.691406 C 10.746094 4.722656 9.460938 4.183594 8.097656 4.183594 C 6.734375 4.183594 5.449219 4.722656 4.484375 5.691406 C 2.492188 7.691406 2.492188 10.953125 4.484375 12.949219 C 4.625 13.089844 4.847656 13.089844 4.988281 12.949219 C 5.128906 12.808594 5.128906 12.585938 4.988281 12.445312 C 3.265625 10.71875 3.265625 7.914062 4.988281 6.1875 C 5.816406 5.355469 6.925781 4.890625 8.105469 4.890625 C 9.28125 4.890625 10.386719 5.355469 11.222656 6.1875 C 12.050781 7.019531 12.511719 8.136719 12.511719 9.320312 C 12.511719 10.503906 12.058594 11.613281 11.222656 12.453125 C 11.074219 12.585938 11.074219 12.816406 11.214844 12.949219 Z M 11.214844 12.949219 " fill-opacity="1" fill-rule="nonzero"/><path fill="#000000" d="M 2.886719 15.0625 C 3.027344 14.921875 3.027344 14.699219 2.886719 14.558594 C 1.496094 13.160156 0.726562 11.296875 0.726562 9.320312 C 0.726562 7.34375 1.488281 5.480469 2.878906 4.082031 C 5.75 1.199219 10.425781 1.199219 13.304688 4.082031 C 14.695312 5.480469 15.464844 7.34375 15.464844 9.320312 C 15.464844 11.296875 14.703125 13.160156 13.308594 14.558594 C 13.167969 14.699219 13.167969 14.921875 13.308594 15.0625 C 13.375 15.128906 13.46875 15.164062 13.558594 15.164062 C 13.652344 15.164062 13.738281 15.128906 13.804688 15.0625 C 15.332031 13.527344 16.167969 11.492188 16.167969 9.320312 C 16.167969 7.15625 15.324219 5.113281 13.796875 3.578125 C 10.648438 0.414062 5.523438 0.414062 2.378906 3.578125 C 0.851562 5.113281 0.015625 7.148438 0.015625 9.320312 C 0.015625 11.484375 0.859375 13.527344 2.382812 15.0625 C 2.523438 15.195312 2.753906 15.195312 2.886719 15.0625 Z M 2.886719 15.0625 " fill-opacity="1" fill-rule="nonzero"/><g clip-path="url(#41bd8e57ff)"><path fill="#000000" d="M 18.628906 29.171875 L 16.84375 29.171875 L 17.898438 25.917969 C 18.402344 24.371094 18.65625 22.765625 18.65625 21.140625 L 18.65625 20.714844 C 18.65625 19.027344 17.457031 17.617188 15.851562 17.394531 C 15.398438 16.734375 14.320312 15.847656 12.828125 16.265625 C 12.519531 15.886719 11.777344 15.28125 10.199219 15.492188 L 9.859375 10.488281 C 9.796875 9.601562 9.054688 8.902344 8.164062 8.902344 C 7.226562 8.902344 6.472656 9.667969 6.472656 10.605469 L 6.472656 21.40625 C 5.5625 20.613281 3.789062 19.25 2.242188 19.304688 C 1.589844 19.316406 1.03125 19.574219 0.597656 20.0625 C 0.476562 20.199219 0.476562 20.390625 0.589844 20.527344 C 0.617188 20.558594 3.179688 23.632812 4.894531 27.007812 C 4.90625 27.035156 4.925781 27.0625 4.945312 27.082031 L 6.808594 29.160156 L 6.0625 29.160156 C 5.871094 29.160156 5.710938 29.320312 5.710938 29.515625 L 5.710938 32.230469 C 5.710938 32.425781 5.871094 32.585938 6.0625 32.585938 C 6.257812 32.585938 6.417969 32.425781 6.417969 32.230469 L 6.417969 29.871094 L 18.289062 29.871094 L 18.289062 32.230469 C 18.289062 32.425781 18.449219 32.585938 18.640625 32.585938 C 18.835938 32.585938 18.996094 32.425781 18.996094 32.230469 L 18.996094 29.515625 C 18.984375 29.332031 18.828125 29.171875 18.628906 29.171875 Z M 7.738281 29.160156 L 5.496094 26.652344 C 4.035156 23.789062 1.996094 21.152344 1.339844 20.339844 C 1.601562 20.136719 1.902344 20.03125 2.257812 20.023438 C 4.117188 19.996094 6.550781 22.449219 6.574219 22.476562 C 6.671875 22.578125 6.828125 22.609375 6.960938 22.558594 C 7.09375 22.503906 7.179688 22.375 7.179688 22.226562 L 7.179688 10.609375 C 7.179688 10.066406 7.621094 9.617188 8.171875 9.617188 C 8.6875 9.617188 9.121094 10.019531 9.15625 10.542969 L 9.523438 15.929688 L 9.675781 19.164062 C 9.683594 19.351562 9.84375 19.5 10.03125 19.5 C 10.039062 19.5 10.042969 19.5 10.050781 19.5 C 10.246094 19.492188 10.398438 19.324219 10.386719 19.128906 L 10.253906 16.210938 C 11.699219 16.007812 12.21875 16.585938 12.339844 16.769531 L 12.339844 19.054688 C 12.339844 19.25 12.5 19.410156 12.695312 19.410156 C 12.886719 19.410156 13.050781 19.25 13.050781 19.054688 L 13.050781 16.957031 C 14.347656 16.621094 15.117188 17.554688 15.304688 17.832031 L 15.304688 19.5 C 15.304688 19.691406 15.464844 19.855469 15.65625 19.855469 C 15.851562 19.855469 16.011719 19.691406 16.011719 19.5 L 16.011719 18.148438 C 17.144531 18.414062 17.964844 19.464844 17.964844 20.707031 L 17.964844 21.132812 C 17.964844 22.683594 17.726562 24.21875 17.242188 25.691406 L 16.121094 29.164062 L 7.757812 29.164062 C 7.738281 29.171875 7.738281 29.164062 7.738281 29.160156 Z M 7.738281 29.160156 " fill-opacity="1" fill-rule="nonzero"/></g></svg>