<svg xmlns="http://www.w3.org/2000/svg" width="16" height="16" viewBox="0 0 16 16" fill="none" className="rounded-full text-sm opacity-90"><path d="M8 16C12.4183 16 16 12.4183 16 8C16 3.58172 12.4183 0 8 0C3.58172 0 0 3.58172 0 8C0 12.4183 3.58172 16 8 16Z" fill="#F75E5F"></path><path d="M8.00947 9.73472L5.98477 11.7469C5.76323 11.9684 5.49098 12.0813 5.16802 12.0854C4.84504 12.0896 4.5686 11.9768 4.33869 11.7469C4.11715 11.5253 4.00638 11.251 4.00638 10.9238C4.00638 10.5967 4.11715 10.3223 4.33869 10.1008L6.35083 8.07609L4.33869 6.07361C4.11715 5.85207 4.00429 5.57981 4.00011 5.25683C3.99592 4.93387 4.10878 4.65744 4.33869 4.42753C4.56023 4.20599 4.83458 4.09521 5.16173 4.09521C5.48888 4.09521 5.76323 4.20599 5.98477 4.42753L8.00947 6.43967L10.0119 4.42753C10.2335 4.20599 10.5078 4.09521 10.835 4.09521C11.1621 4.09521 11.4365 4.20599 11.658 4.42753C11.886 4.6555 12 4.93145 12 5.25539C12 5.57933 11.886 5.85207 11.658 6.07361L9.64588 8.07609L11.658 10.1008C11.8796 10.3223 11.9903 10.5967 11.9903 10.9238C11.9903 11.251 11.8796 11.5253 11.658 11.7469C11.4301 11.9748 11.1541 12.0888 10.8302 12.0888C10.5062 12.0888 10.2335 11.9748 10.0119 11.7469L8.00947 9.73472Z" fill="white"></path></svg>